<?xml version="1.0" standalone="no"?>
<!DOCTYPE svg PUBLIC "-//W3C//DTD SVG 20010904//EN"
 "http://www.w3.org/TR/2001/REC-SVG-20010904/DTD/svg10.dtd">
<svg version="1.0" xmlns="http://www.w3.org/2000/svg"
 width="300.000000pt" height="224.000000pt" viewBox="0 0 300.000000 224.000000"
 preserveAspectRatio="xMidYMid meet">
<metadata>
Created by potrace 1.10, written by Peter Selinger 2001-2011
</metadata>
<g transform="translate(0.000000,224.000000) scale(0.100000,-0.100000)"
fill="#000000" stroke="none">
<path d="M2372 2235 c9 -9 187 -12 182 -3 -3 4 -46 8 -96 8 -50 0 -89 -2 -86
-5z"/>
<path d="M2745 2145 c8 -116 18 -144 62 -166 l32 -16 -36 -64 c-36 -65 -70
-109 -85 -109 -4 0 -8 24 -9 53 0 28 -4 60 -7 70 -4 9 -7 -30 -7 -87 0 -57 3
-102 7 -99 7 3 52 68 121 172 12 18 45 58 72 90 28 31 59 75 69 99 10 23 23
42 28 42 4 0 8 21 7 48 -1 45 -1 46 -9 14 -4 -19 -13 -39 -20 -45 -9 -9 -11 0
-8 41 2 39 0 52 -11 52 -11 0 -13 -14 -8 -67 5 -63 3 -70 -26 -114 -30 -46
-54 -59 -108 -59 -18 0 -19 9 -19 120 0 73 -4 120 -10 120 -5 0 -11 -28 -11
-62 l-2 -63 -6 57 c-11 98 -23 77 -16 -27z"/>
<path d="M2850 2215 c0 -8 9 -15 20 -15 11 0 20 7 20 15 0 8 -9 15 -20 15 -11
0 -20 -7 -20 -15z"/>
<path d="M164 2145 c3 -16 9 -46 14 -65 l10 -35 1 31 c1 18 -6 47 -14 65 l-16
34 5 -30z"/>
<path d="M2572 2153 c4 -56 -28 -82 -104 -84 -24 0 -52 -4 -63 -9 -13 -5 -2
-7 31 -5 27 2 56 0 64 -5 11 -7 15 -51 17 -211 2 -191 12 -267 33 -254 5 3 16
-2 25 -11 15 -16 19 -15 48 15 l32 31 0 159 c0 120 3 162 14 175 12 14 12 16
-3 10 -14 -5 -17 -2 -15 17 4 34 -16 94 -40 125 -12 15 -21 33 -21 40 0 7 -4
16 -10 19 -5 3 -9 -2 -8 -12z m26 -80 c5 -10 12 -116 15 -235 7 -214 6 -217
-15 -232 -12 -8 -24 -13 -28 -11 -4 2 -10 111 -14 241 -6 192 -5 238 6 245 19
13 26 11 36 -8z"/>
<path d="M2845 2150 c-3 -6 1 -13 10 -16 12 -5 14 -14 10 -35 -4 -16 -4 -29 0
-29 10 0 36 70 30 80 -8 13 -42 13 -50 0z"/>
<path d="M1375 2083 c-11 -3 -24 -9 -30 -13 -5 -4 -31 -6 -56 -4 -36 3 -49 0
-64 -16 -12 -13 -31 -20 -56 -20 -21 0 -43 -6 -49 -12 -34 -41 -50 -62 -50
-65 0 -3 13 -2 29 2 17 4 32 2 36 -5 4 -6 16 -8 28 -5 16 5 18 4 8 -3 -11 -8
-9 -12 10 -18 13 -4 30 -7 37 -5 7 1 30 -15 51 -37 20 -21 43 -36 49 -34 7 2
12 -2 12 -8 0 -10 3 -10 15 0 19 16 1 54 -22 46 -9 -4 -13 -1 -11 6 7 19 34
21 51 3 20 -19 47 -20 47 0 0 8 -17 19 -40 26 -35 11 -42 10 -59 -5 -13 -12
-21 -14 -26 -6 -3 5 -9 8 -13 6 -10 -6 -47 23 -39 30 4 4 13 1 22 -6 12 -10
15 -10 15 2 0 7 9 21 19 30 17 14 21 15 32 2 9 -11 8 -14 -4 -14 -12 0 -27
-19 -27 -36 0 -2 14 5 30 15 26 15 37 16 70 8 34 -9 39 -14 34 -33 -7 -27 9
-39 26 -20 9 12 8 20 -5 40 -10 14 -21 27 -26 27 -5 1 -13 3 -19 4 -5 1 -17 3
-25 4 -22 2 -18 19 6 26 13 4 27 1 38 -10 16 -13 19 -14 24 -2 11 30 -52 53
-69 26 -3 -6 -15 -9 -25 -6 -15 4 -17 2 -9 -13 17 -33 11 -33 -25 -1 -38 33
-60 39 -68 19 -2 -7 -8 -9 -13 -5 -4 4 2 17 14 29 l22 22 25 -24 25 -23 0 24
c0 16 3 20 9 11 6 -10 10 -10 21 3 7 9 19 14 27 11 7 -3 13 0 13 7 0 8 3 7 9
-2 8 -13 12 -13 27 0 16 13 17 12 11 -5 -6 -14 -4 -17 9 -12 12 5 14 1 8 -16
-5 -17 -3 -20 11 -15 9 4 21 7 26 7 5 0 14 10 19 23 l9 22 0 -24 c1 -20 4 -22
13 -13 19 19 48 15 48 -8 0 -11 -5 -20 -11 -20 -6 0 -9 7 -5 15 6 16 -9 21
-18 6 -12 -18 24 -34 68 -29 45 5 81 -6 70 -23 -4 -6 -11 -6 -19 1 -8 7 -19 8
-26 4 -19 -11 32 -34 64 -28 16 3 27 1 27 -5 0 -6 -9 -11 -20 -11 -11 0 -20
-4 -20 -10 0 -5 7 -10 15 -10 8 0 15 -4 15 -10 0 -5 11 -10 24 -10 28 0 43
-15 24 -24 -10 -5 -10 -7 0 -12 7 -3 25 -16 40 -29 23 -20 25 -25 12 -40 -13
-15 -11 -20 14 -42 39 -33 26 -40 -29 -13 -35 17 -43 25 -35 35 17 20 2 43
-26 37 -28 -5 -31 5 -6 24 24 18 4 48 -37 52 -23 2 -31 8 -31 23 0 12 -7 19
-20 19 -12 0 -24 10 -29 24 -10 24 -47 41 -56 25 -3 -4 6 -11 20 -15 14 -3 25
-13 25 -21 0 -18 -12 -10 -72 45 l-36 34 -28 -25 c-19 -18 -25 -31 -20 -44 6
-15 10 -13 21 15 13 29 16 31 35 20 11 -7 20 -21 20 -30 0 -21 -11 -23 -28 -6
-9 9 -12 7 -12 -10 0 -23 33 -32 45 -12 9 15 45 12 45 -4 0 -9 -7 -12 -20 -9
-22 6 -26 -7 -8 -25 8 -8 17 -6 36 8 31 25 44 25 60 0 11 -18 10 -20 -19 -20
-18 0 -28 -4 -24 -10 7 -11 95 -9 95 3 0 4 7 7 15 7 8 0 15 -7 15 -16 0 -8 -4
-13 -8 -10 -12 7 -80 -18 -99 -37 -16 -15 -14 -16 20 -15 24 1 37 6 37 15 0
11 8 9 31 -8 35 -25 51 -58 37 -76 -8 -10 -1 -13 31 -13 35 0 43 -4 56 -29 9
-19 11 -32 5 -36 -6 -3 -10 -1 -10 5 0 6 -4 9 -9 5 -6 -3 -10 -13 -10 -23 0
-9 -2 -29 -5 -44 -2 -16 -7 -47 -11 -70 -3 -24 -8 -55 -11 -69 -4 -21 0 -28
15 -32 22 -5 41 -43 41 -81 0 -49 -32 -129 -66 -162 -34 -35 -34 -35 -34 -127
0 -100 8 -128 29 -103 10 12 9 16 -6 25 -17 10 -16 10 3 11 28 0 38 -13 58
-80 25 -79 47 -118 70 -124 44 -12 272 -183 380 -286 73 -69 196 -215 196
-232 0 -6 6 -5 15 2 8 7 22 10 30 6 19 -7 20 -45 0 -52 -11 -4 -12 -11 -5 -24
16 -30 39 -103 46 -147 7 -48 34 -62 29 -16 -2 16 1 33 7 40 6 7 5 18 -3 31
-10 17 -8 27 17 68 16 27 31 69 34 94 l5 45 95 5 c54 3 85 8 73 12 -15 4 -23
14 -23 30 0 12 -5 30 -10 38 -8 12 -10 9 -10 -12 0 -34 -12 -41 -77 -45 -48
-3 -54 -1 -62 19 l-9 23 -6 -25 c-4 -14 -5 -51 -2 -83 4 -50 1 -63 -20 -94
-13 -20 -24 -40 -24 -44 0 -5 -4 -9 -10 -9 -15 0 -12 33 6 58 15 21 15 25 -1
42 -25 28 -25 81 0 94 13 7 19 18 17 30 -2 11 3 25 13 32 10 8 15 20 11 32 -4
12 1 25 14 37 15 14 20 30 19 69 0 28 -4 60 -8 71 -5 11 -5 25 0 30 4 6 9 56
10 113 3 100 2 102 -26 132 -32 33 -45 38 -45 15 0 -16 -16 -21 -22 -6 -1 5
-24 6 -49 2 l-46 -7 13 32 c8 19 14 64 14 100 0 37 3 64 7 61 3 -4 11 -2 18 3
7 6 24 6 45 0 38 -11 37 -12 42 15 3 19 -3 20 -101 23 -58 1 -111 8 -118 14
-9 8 -13 46 -13 144 0 158 -3 154 119 154 74 0 81 2 81 20 0 22 -16 27 -23 8
-3 -9 -8 -10 -15 -3 -7 6 -38 8 -76 5 -50 -4 -71 -11 -91 -30 l-26 -25 5 -133
c3 -98 8 -139 20 -157 12 -18 13 -30 6 -50 -13 -34 -13 -97 1 -131 13 -35 4
-74 -17 -74 -23 0 -84 -64 -84 -88 0 -27 -10 -53 -19 -47 -4 2 -5 -9 -3 -26 2
-16 -1 -36 -8 -44 -9 -10 -9 -15 -1 -15 6 0 11 -9 11 -21 0 -14 5 -19 14 -16
10 4 12 0 9 -14 -5 -19 -6 -19 -27 -2 -31 26 -32 29 -35 80 -1 29 3 49 11 54
9 6 6 9 -9 9 -17 0 -23 -6 -23 -22 -1 -66 -24 -84 -47 -37 -10 19 -9 27 3 41
10 11 14 27 10 45 -10 51 6 95 39 106 16 6 38 20 48 31 17 19 18 36 12 210 -3
104 -10 196 -15 205 -8 14 -9 14 -10 -2 0 -15 -5 -17 -30 -12 -42 9 -80 -30
-80 -82 0 -42 -32 -103 -54 -103 -10 0 -17 -15 -22 -45 -3 -26 -12 -51 -19
-58 -26 -27 -32 -55 -28 -134 2 -46 0 -83 -5 -83 -4 0 -27 14 -49 30 -31 23
-47 45 -62 86 -12 30 -21 59 -21 63 0 5 -16 23 -36 40 -31 28 -35 37 -36 82 0
38 6 59 26 87 40 58 56 108 57 172 1 42 -4 68 -17 87 -23 35 -21 150 3 196 26
51 33 107 17 146 -8 18 -14 40 -14 49 0 16 -46 76 -123 159 -31 33 -60 54 -80
58 -18 4 -51 16 -75 27 -23 11 -52 18 -64 15 -12 -3 -34 1 -49 9 -28 14 -47
16 -84 7z m-219 -78 c-6 -16 9 -21 19 -5 4 6 15 6 31 0 14 -6 37 -7 52 -4 l27
6 -25 -18 c-14 -10 -30 -25 -37 -34 -11 -13 -12 -13 -13 3 0 15 -6 16 -40 11
-38 -6 -40 -5 -40 18 0 26 7 38 23 38 5 0 7 -7 3 -15z m1058 -771 c3 -9 6 -89
6 -179 0 -175 -4 -190 -52 -183 -35 5 -31 42 5 46 33 4 36 22 3 22 -23 0 -24
3 -30 103 -6 100 -9 184 -7 200 2 15 69 7 75 -9z m-104 -159 c8 -9 12 -67 13
-179 1 -91 5 -166 10 -166 4 0 2 -9 -5 -20 -20 -31 -41 -26 -33 9 4 20 2 30
-8 34 -11 4 -15 42 -21 162 -3 86 -4 161 -1 166 9 14 31 11 45 -6z m325 -95
c0 -81 -1 -85 -22 -88 -22 -3 -23 -1 -23 81 0 87 4 100 30 95 12 -3 15 -19 15
-88z m-390 -100 c0 -69 -3 -85 -15 -85 -12 0 -16 18 -18 88 -3 81 -1 88 15 85
16 -3 18 -15 18 -88z m565 -79 c0 -20 2 -68 5 -107 l5 -70 -87 0 -88 1 -3 94
c-1 52 -1 100 2 107 4 9 29 13 86 12 l81 -1 -1 -36z m-200 -56 l0 -85 -41 -20
c-23 -12 -38 -24 -35 -27 3 -3 17 2 30 11 36 23 43 20 38 -14 l-4 -30 105 0
105 0 4 -57 c2 -32 1 -62 -2 -66 -4 -4 -19 -3 -34 3 -15 5 -56 10 -90 10 -39
0 -67 5 -73 13 -6 6 -13 34 -16 60 -6 63 -17 73 -55 53 -57 -30 -61 -26 -61
77 l-1 92 38 32 c22 19 48 32 65 33 l27 0 0 -85z m-366 19 c8 -21 8 -64 0 -64
-13 0 -33 35 -34 58 0 25 25 30 34 6z m328 -214 c-2 -14 -9 -31 -14 -37 -8
-10 -6 -13 6 -13 12 0 16 -10 16 -40 0 -42 -13 -52 -28 -22 -13 24 -25 119
-17 132 13 21 40 6 37 -20z m-62 -20 c0 -23 -25 -27 -33 -6 -7 16 1 26 20 26
7 0 13 -9 13 -20z m136 -88 c10 -7 12 -77 2 -87 -9 -10 -37 6 -43 25 -3 10 -3
30 1 44 6 26 20 32 40 18z m114 -27 c10 -12 10 -21 2 -40 -9 -20 -15 -23 -34
-16 -26 9 -37 49 -16 62 19 13 34 11 48 -6z m-52 -99 c3 -20 0 -27 -10 -24 -7
3 -14 17 -16 32 -3 20 0 27 10 24 7 -3 14 -17 16 -32z"/>
<path d="M2497 792 c-24 -26 -21 -33 8 -20 14 6 25 17 25 25 0 18 -14 16 -33
-5z"/>
<path d="M2545 742 c5 -27 2 -39 -15 -57 l-21 -23 39 11 c35 9 38 13 29 28 -9
14 -7 22 6 37 23 25 22 29 -14 34 -30 5 -31 4 -24 -30z"/>
<path d="M1040 1954 c-8 -14 -26 -34 -41 -45 -15 -10 -29 -32 -33 -50 -3 -17
-14 -41 -25 -55 -15 -18 -17 -31 -11 -61 17 -78 31 -112 50 -118 18 -6 20 -16
20 -84 0 -74 -1 -78 -30 -99 -31 -24 -40 -64 -21 -100 31 -56 54 -120 80 -217
17 -61 45 -140 64 -175 19 -36 40 -82 47 -103 6 -20 20 -42 31 -47 10 -6 19
-15 19 -21 0 -6 -25 -35 -56 -64 -58 -57 -61 -71 -20 -105 21 -17 20 -1 0 22
-16 17 -14 20 31 60 113 100 140 110 151 53 3 -19 11 -38 16 -41 6 -4 6 -9 -1
-14 -9 -5 -9 -14 -2 -31 5 -13 12 -33 16 -44 13 -40 21 5 13 72 -10 82 -27
109 -88 137 -27 13 -56 29 -65 36 -12 10 -15 10 -15 -2 0 -9 11 -24 25 -34 24
-18 32 -34 17 -34 -21 0 -62 53 -61 78 1 15 -12 56 -29 92 -32 67 -78 211 -84
266 -2 17 -11 39 -21 48 -9 10 -20 29 -23 44 -3 15 -10 37 -16 49 -15 31 -5
49 32 57 l32 6 -7 92 c-3 51 -7 107 -8 123 -1 17 -6 36 -11 44 -5 8 -4 16 4
21 6 4 10 16 8 26 -6 28 -38 -36 -38 -76 0 -20 -4 -29 -11 -24 -6 4 -8 20 -5
39 5 24 2 34 -9 39 -9 3 -15 18 -15 40 0 27 6 40 25 52 22 14 24 22 19 50 -3
19 -3 34 1 34 11 0 34 -27 28 -34 -4 -3 -1 -6 5 -6 12 0 18 17 27 83 7 54 4
58 -15 21z"/>
<path d="M2943 1928 c-30 -34 -202 -260 -218 -287 -34 -58 141 150 201 239 51
76 57 92 17 48z"/>
<path d="M1066 1924 c-4 -12 -2 -15 9 -11 25 10 24 -8 -2 -33 -23 -22 -24 -25
-7 -31 11 -3 22 -5 25 -3 4 2 9 -6 12 -18 4 -12 9 -19 13 -16 11 12 -7 48 -24
48 -13 0 -11 5 8 20 20 16 23 22 14 37 -15 24 -40 28 -48 7z"/>
<path d="M1127 1916 c12 -16 21 -21 28 -15 7 7 3 15 -9 25 -30 22 -39 17 -19
-10z"/>
<path d="M1165 1892 c-10 -11 -5 -32 9 -32 8 0 27 -15 43 -34 l28 -34 -1 31
c-1 18 4 36 10 40 7 6 5 7 -6 4 -20 -7 -31 3 -18 17 6 9 -1 12 -25 13 -19 0
-37 -2 -40 -5z"/>
<path d="M1498 1888 c12 -6 25 -22 28 -35 7 -28 24 -31 24 -4 0 22 -16 36 -50
45 -25 6 -25 6 -2 -6z"/>
<path d="M1473 1873 c20 -22 23 -58 5 -69 -8 -5 -9 -1 -5 12 7 18 6 18 -9 -1
-16 -20 -16 -19 -11 5 4 14 2 32 -3 40 -7 11 -10 7 -10 -16 0 -16 -7 -39 -15
-50 -15 -18 -15 -18 -9 9 11 49 9 60 -9 63 -13 2 -17 -2 -13 -12 3 -8 1 -14
-4 -14 -6 0 -10 6 -11 13 0 6 -10 -8 -22 -33 -20 -41 -25 -45 -47 -39 -50 14
-59 9 -41 -19 9 -14 71 -26 71 -13 0 4 16 7 36 6 19 0 40 5 46 12 6 8 16 10
27 4 52 -28 91 23 61 79 -6 11 -20 25 -33 31 -21 12 -21 11 -4 -8z m-63 -54
c0 -8 -41 -29 -55 -29 -2 0 2 11 8 24 7 15 17 21 29 18 10 -2 18 -8 18 -13z"/>
<path d="M665 1863 c-11 -30 -6 -644 6 -688 7 -22 11 -59 10 -82 -1 -38 1 -43
21 -43 17 0 19 3 10 12 -7 7 -12 34 -12 60 0 28 -7 59 -16 73 -14 22 -15 56
-9 305 4 154 12 280 16 280 5 0 2 12 -7 26 -16 23 -16 26 -1 42 16 15 18 15
34 -1 14 -14 15 -21 6 -36 -9 -15 -8 -21 8 -35 18 -15 19 -32 18 -357 -1 -187
1 -343 5 -346 3 -4 6 43 6 103 1 60 1 208 2 329 2 310 -10 375 -67 375 -13 0
-26 -8 -30 -17z"/>
<path d="M1035 1831 c-34 -15 -77 -70 -70 -91 9 -27 17 -25 37 9 12 22 13 31
5 35 -8 3 -7 8 3 15 12 8 16 6 18 -9 4 -23 48 -38 64 -22 8 8 7 20 -2 41 -13
32 -21 35 -55 22z m36 -40 c20 -18 20 -18 -3 -17 -13 1 -24 8 -26 19 -4 22 4
22 29 -2z"/>
<path d="M1560 1800 c0 -5 -7 -10 -15 -10 -8 0 -15 -5 -15 -11 0 -5 6 -7 13
-3 8 5 8 2 -2 -9 -12 -15 -10 -20 13 -38 14 -11 26 -27 26 -35 0 -8 10 -19 23
-23 17 -7 26 -4 39 12 13 16 18 18 17 7 0 -18 -28 -70 -29 -54 0 7 -9 14 -20
17 -17 4 -19 1 -16 -18 5 -25 25 -66 26 -52 0 5 -5 17 -10 28 -12 21 -1 26 17
8 8 -8 13 -5 18 10 3 12 10 21 15 21 11 0 19 47 8 58 -4 4 -1 17 7 28 15 19
15 19 26 0 12 -19 12 -19 25 -1 13 17 11 20 -17 32 -43 18 -48 17 -42 -9 4
-17 2 -20 -5 -9 -9 12 -16 12 -47 -3 -45 -22 -54 -15 -32 23 9 15 14 31 10 35
-10 10 -33 7 -33 -4z m100 -70 c0 -5 -4 -10 -10 -10 -5 0 -10 -6 -10 -14 0
-18 -30 -30 -44 -16 -7 7 -5 10 5 10 8 0 20 9 27 20 13 21 32 27 32 10z"/>
<path d="M1219 1764 c-14 -8 -55 -15 -90 -17 -77 -3 -101 -14 -75 -33 10 -7
15 -18 11 -24 -5 -8 -11 -7 -23 2 -14 12 -14 10 -3 -10 7 -13 10 -36 6 -53
-10 -44 1 -35 28 25 30 64 62 85 136 87 34 2 51 6 51 15 0 20 -12 22 -41 8z"/>
<path d="M60 1728 c0 -18 -3 -112 -6 -208 -4 -96 -4 -173 -1 -170 8 8 21 410
13 410 -3 0 -6 -15 -6 -32z"/>
<path d="M1737 1683 c-13 -15 -14 -22 -5 -31 6 -6 8 -15 3 -19 -4 -5 -10 -2
-12 5 -3 6 -9 10 -14 6 -5 -3 -9 5 -9 17 0 26 -9 21 -15 -10 -3 -14 1 -21 12
-21 10 0 13 -6 9 -16 -5 -13 -4 -14 7 -6 8 7 17 9 20 5 4 -3 7 -1 7 5 0 18 17
14 24 -4 4 -9 1 -24 -6 -32 -10 -13 -10 -14 0 -8 8 5 15 -1 21 -16 8 -20 10
-17 10 19 1 23 4 48 7 56 3 8 -5 27 -18 42 -23 26 -24 26 -41 8z m33 -24 c6
-11 9 -28 7 -37 -4 -13 -5 -12 -6 4 0 12 -8 24 -16 28 -8 3 -15 10 -15 16 0
17 19 11 30 -11z"/>
<path d="M1102 1624 c-23 -57 -29 -134 -13 -134 15 0 23 18 38 84 19 83 20 99
7 103 -6 2 -21 -22 -32 -53z"/>
<path d="M244 1535 c0 -49 1 -71 3 -48 2 23 2 64 0 90 -2 26 -3 8 -3 -42z"/>
<path d="M1727 1585 c-8 -8 -18 -11 -22 -7 -5 4 -3 -1 2 -11 11 -20 5 -70 -7
-62 -4 2 -13 -6 -20 -19 -11 -22 -18 -24 -86 -22 -41 0 -74 -2 -74 -6 0 -9 16
-10 119 -8 47 1 79 6 87 15 17 17 18 67 2 83 -9 9 -9 12 2 12 7 0 10 3 7 7 -4
3 -2 12 4 20 15 18 4 17 -14 -2z"/>
<path d="M2854 1465 c3 -33 5 -87 6 -119 0 -33 3 -57 6 -53 11 11 6 209 -6
221 -9 8 -11 -3 -6 -49z"/>
<path d="M1370 1478 c-14 -5 -36 -11 -50 -12 -13 -2 -25 -7 -27 -12 -2 -5 40
-10 94 -11 53 -1 101 -7 107 -13 7 -7 4 -10 -9 -10 -17 0 -18 -2 -5 -10 11 -7
2 -10 -33 -10 -49 0 -87 -13 -87 -30 0 -16 30 -11 37 5 5 14 7 14 24 -1 10 -9
23 -13 29 -9 6 4 28 8 50 9 29 2 40 -1 43 -13 4 -13 5 -13 6 2 1 11 9 17 24
17 12 0 39 3 60 6 33 6 37 4 37 -15 0 -27 17 -27 25 -1 4 13 18 23 36 27 16 3
29 9 29 13 0 16 -46 18 -105 6 -51 -11 -61 -11 -65 1 -7 18 -25 18 -25 1 0 -7
-8 -14 -17 -16 -10 -2 -18 1 -18 7 0 19 -32 41 -63 42 -30 1 -30 1 -7 8 17 5
21 9 12 15 -6 4 -12 5 -12 3 0 -3 -15 -2 -33 3 -18 4 -44 3 -57 -2z"/>
<path d="M1079 1464 c-17 -21 -15 -104 2 -115 10 -6 9 -16 -3 -48 l-16 -41 38
0 c29 0 42 5 50 21 11 20 11 20 -18 5 -28 -14 -42 -13 -42 5 0 5 12 15 27 22
l27 14 -22 12 c-12 6 -22 16 -22 21 0 15 27 12 33 -4 4 -9 14 -12 26 -9 18 4
21 1 21 -23 0 -46 20 -14 27 44 6 50 5 52 -18 51 -13 -1 -35 -5 -49 -9 -23 -7
-23 -8 -3 -9 29 -1 53 -11 53 -22 0 -11 -43 -3 -80 14 -36 16 -35 16 -14 32
34 26 124 16 124 -14 0 -14 7 -17 30 -13 32 5 32 22 0 22 -10 0 -23 6 -27 14
-4 7 -33 21 -65 30 -68 20 -63 20 -79 0z"/>
<path d="M236 1310 c-5 -74 -10 -170 -11 -213 -1 -55 -6 -81 -16 -88 -11 -6
-11 -11 -1 -21 14 -14 18 -268 3 -268 -4 0 -39 14 -76 31 -38 17 -74 27 -84
24 -22 -9 89 -65 139 -70 35 -3 38 -1 44 27 3 17 6 99 6 182 0 83 4 157 9 165
7 11 13 11 37 -2 16 -8 40 -19 54 -25 14 -5 52 -21 85 -35 90 -38 119 -50 127
-51 3 -1 10 -4 13 -8 4 -4 16 3 26 15 29 35 40 6 37 -98 -1 -54 3 -98 10 -110
6 -11 12 -15 12 -10 1 6 5 46 10 90 5 52 5 115 -3 180 l-11 100 -11 -45 -12
-45 -18 31 c-11 19 -32 34 -55 42 -20 6 -65 24 -101 41 -108 49 -140 61 -170
61 l-28 0 -3 118 -3 117 -9 -135z m169 -186 c61 -25 125 -51 142 -57 58 -19
82 -67 33 -67 -16 0 -260 96 -300 119 -8 4 -16 18 -18 30 -5 31 18 27 143 -25z"/>
<path d="M1318 1433 c-23 -4 -28 -9 -27 -31 0 -26 1 -26 9 -4 6 14 18 22 32
22 13 0 30 5 38 10 16 11 3 11 -52 3z"/>
<path d="M2590 1431 c0 -6 5 -13 11 -16 6 -4 14 -17 19 -29 7 -18 9 -18 9 -3
1 10 -4 27 -9 38 -11 20 -30 26 -30 10z"/>
<path d="M2695 1420 c-18 -58 3 -490 25 -490 3 0 0 57 -5 127 -6 71 -10 185
-10 256 0 70 0 127 -2 127 -1 0 -5 -9 -8 -20z"/>
<path d="M1360 1409 c0 -5 -4 -7 -10 -4 -5 3 -10 -1 -10 -9 0 -20 3 -20 42 4
l33 20 -27 0 c-16 0 -28 -5 -28 -11z"/>
<path d="M1765 1380 c-21 -23 -13 -39 9 -21 13 11 18 7 30 -21 l14 -33 1 28
c1 30 -14 67 -28 67 -4 0 -16 -9 -26 -20z"/>
<path d="M1263 1379 c9 -5 17 -14 17 -19 0 -5 20 -40 45 -77 47 -70 57 -100
29 -89 -41 16 -62 17 -76 2 -17 -16 -50 -15 -56 2 -6 19 -30 14 -42 -8 -18
-34 -4 -40 87 -35 88 5 113 15 113 43 0 13 3 12 20 -3 11 -10 23 -15 27 -12 3
4 0 7 -7 7 -7 0 -11 3 -7 6 3 3 -3 16 -14 28 l-20 21 23 6 c21 5 21 6 -7 11
-39 9 -65 29 -69 53 -2 11 -9 19 -16 17 -8 -2 -10 3 -6 13 3 9 2 13 -3 10 -5
-3 -12 4 -16 15 -3 11 -14 20 -23 20 -16 -1 -15 -2 1 -11z"/>
<path d="M1227 1373 c-4 -3 -7 -17 -7 -31 0 -15 -15 -39 -37 -62 -26 -25 -37
-44 -35 -59 l3 -22 18 23 c27 34 63 108 66 135 2 25 2 26 -8 16z"/>
<path d="M2530 1343 c-30 -30 -40 -34 -72 -30 l-38 5 0 -44 c0 -33 3 -42 14
-38 12 5 43 8 129 12 27 2 27 3 27 67 0 76 -8 79 -60 28z m48 -40 c-2 -10 -13
-19 -26 -21 -24 -4 -29 7 -10 26 18 18 40 15 36 -5z"/>
<path d="M1010 1350 c0 -10 5 -31 11 -47 10 -26 12 -27 19 -8 15 36 11 62 -10
68 -15 4 -20 0 -20 -13z"/>
<path d="M1403 1314 c32 -30 42 -35 65 -29 l27 8 -33 7 c-47 11 -65 30 -27 30
39 0 29 6 -25 14 l-45 6 38 -36z"/>
<path d="M1726 1341 c-4 -6 -2 -20 4 -31 7 -14 8 -26 0 -39 -12 -24 -13 -41
-1 -41 5 0 12 14 16 30 6 28 25 43 25 20 0 -5 5 -10 11 -10 18 0 5 42 -16 54
-11 6 -23 15 -26 20 -4 4 -10 3 -13 -3z"/>
<path d="M2939 1250 c-18 -22 -35 -37 -40 -34 -4 2 -6 -8 -5 -23 2 -16 5 -73
6 -128 3 -80 4 -90 9 -50 4 32 10 49 19 48 9 -2 12 20 12 87 0 84 1 90 25 106
25 16 33 34 15 34 -5 0 -23 -18 -41 -40z"/>
<path d="M2616 1241 c-5 -24 -5 -82 -1 -130 l8 -86 14 72 c11 60 11 81 0 130
l-13 58 -8 -44z"/>
<path d="M2824 1230 c-21 -16 -45 -30 -51 -30 -15 0 -17 -136 -4 -205 6 -33 8
-21 13 67 l7 106 43 40 c52 49 47 64 -8 22z"/>
<path d="M1070 1222 c0 -10 7 -40 17 -67 13 -40 18 -45 23 -30 4 11 4 28 -1
37 -14 27 -10 56 9 67 14 9 11 10 -15 11 -25 0 -33 -4 -33 -18z"/>
<path d="M38 1210 c-4 -14 -7 -41 -7 -60 l1 -35 9 34 c6 18 9 45 7 60 l-3 26
-7 -25z"/>
<path d="M1699 1144 c-15 -38 -23 -224 -9 -224 27 0 3 -35 -60 -85 -38 -31
-70 -58 -70 -62 0 -7 12 2 108 82 47 38 67 61 57 63 -12 3 -15 22 -15 112 0
78 4 110 13 113 9 4 9 7 0 17 -10 11 -15 8 -24 -16z"/>
<path d="M1654 1118 c-4 -13 -11 -26 -16 -29 -6 -4 -10 -29 -10 -57 1 -37 -5
-58 -21 -79 -24 -32 -75 -80 -110 -105 -14 -9 -27 -27 -29 -40 -3 -13 -9 -32
-13 -43 -4 -11 5 -2 20 20 15 22 49 58 75 80 62 53 104 119 102 160 -1 17 4
50 12 73 8 23 11 42 6 42 -5 0 -12 -10 -16 -22z"/>
<path d="M30 1094 c0 -8 5 -12 10 -9 6 4 38 -12 71 -34 34 -23 65 -41 70 -41
17 0 -14 37 -45 56 -17 9 -33 21 -36 24 -3 4 -20 10 -37 13 -26 5 -33 3 -33
-9z"/>
<path d="M1197 1070 c-16 -13 -28 -16 -32 -10 -11 19 -25 0 -25 -35 0 -42 17
-55 26 -19 l7 26 137 -4 c129 -3 137 -2 129 15 -5 9 -15 18 -22 18 -7 1 -25 3
-42 4 -99 10 -136 14 -144 19 -5 3 -20 -3 -34 -14z"/>
<path d="M17 936 c-8 -127 -6 -158 8 -144 3 3 4 68 3 144 l-3 139 -8 -139z"/>
<path d="M2973 1056 c-13 -6 -23 -20 -23 -31 0 -18 2 -17 27 7 30 31 29 39 -4
24z"/>
<path d="M737 1053 c-4 -3 -3 -11 2 -17 15 -18 -4 -187 -22 -201 -14 -10 -14
-12 1 -21 19 -13 8 -34 -19 -34 -27 0 -24 -33 6 -66 18 -19 25 -38 25 -66 0
-36 -2 -39 -22 -33 -22 6 -22 5 -4 -9 10 -8 15 -20 11 -26 -4 -7 -7 -34 -6
-60 1 -59 -19 -82 -42 -49 -11 15 -21 19 -34 15 -16 -7 -15 -9 10 -28 21 -16
27 -28 27 -59 0 -37 -2 -39 -30 -39 -16 0 -30 5 -30 10 0 6 7 10 15 10 24 0
17 17 -10 24 -22 6 -25 11 -23 57 0 28 -4 55 -11 62 -8 8 -11 5 -11 -13 1
-107 -2 -130 -15 -130 -7 0 -16 6 -18 13 -3 8 -14 1 -31 -18 -30 -36 -31 -43
-10 -73 14 -20 22 -22 59 -18 30 3 47 0 56 -10 13 -15 29 -10 29 10 0 8 -9 16
-20 19 -20 5 -27 31 -12 41 5 3 18 2 30 -1 18 -4 22 -13 22 -49 0 -24 -4 -44
-9 -44 -5 0 -11 -8 -13 -18 -4 -15 5 -23 44 -38 50 -19 97 -72 83 -94 -3 -5
11 -16 31 -25 25 -10 34 -19 30 -30 -8 -21 3 -45 21 -45 23 0 14 130 -10 155
-10 9 -15 20 -12 23 3 4 10 1 14 -7 6 -10 10 -9 15 4 9 24 8 25 -18 25 -31 0
-40 14 -27 38 7 13 7 22 0 29 -6 6 -9 21 -7 34 3 20 9 23 46 24 25 1 49 8 59
18 16 16 15 17 -19 17 -39 0 -62 19 -56 47 2 14 16 19 56 23 29 3 59 2 67 -3
10 -5 42 14 106 64 95 74 113 77 105 19 -19 -137 -23 -151 -37 -129 -6 10 -9
7 -8 -11 0 -14 -11 -55 -25 -93 -14 -37 -22 -67 -18 -67 4 0 1 -4 -5 -8 -7 -4
-14 -18 -16 -31 -2 -12 -10 -27 -18 -32 -12 -7 -11 -9 3 -9 11 0 30 37 68 133
63 163 68 175 69 160 2 -23 -62 -191 -115 -302 -30 -63 -54 -116 -54 -117 0
-2 6 -4 13 -4 6 0 20 19 31 43 55 125 108 256 117 289 5 21 14 38 19 38 5 0
12 26 16 57 7 56 8 57 16 25 5 -17 13 -32 18 -32 5 0 4 11 -2 26 -10 21 -9 27
2 34 42 24 49 36 51 85 1 39 -25 172 -38 194 -1 2 -29 -21 -62 -50 -60 -52
-71 -71 -51 -84 5 -3 7 0 4 8 -3 9 0 14 9 14 9 -1 26 13 39 32 12 19 30 37 38
39 12 4 11 1 -2 -15 -21 -23 -23 -34 -5 -27 16 6 57 -80 57 -118 0 -17 -10
-34 -27 -48 -32 -25 -45 -22 -53 11 -4 13 -17 40 -29 59 -18 27 -21 29 -15 10
6 -22 5 -23 -9 -11 -14 11 -21 9 -48 -13 -53 -45 -63 -35 -72 79 -2 22 -4 -2
-5 -52 -2 -80 -5 -96 -23 -114 -32 -32 -39 -11 -39 114 0 60 -4 106 -9 103 -4
-3 -16 3 -26 14 -10 11 -23 20 -30 20 -7 0 -10 20 -7 63 4 61 3 64 -28 90 -17
15 -42 27 -55 27 -25 0 -27 5 -39 105 -3 22 -5 41 -6 43 0 5 -17 2 -23 -5z
m111 -258 c2 -38 0 -94 -3 -122 l-6 -53 -45 0 -44 0 0 118 c0 65 3 122 7 126
4 4 25 6 48 4 l40 -3 3 -70z m64 -107 c2 -7 1 -62 -2 -123 -5 -106 -6 -110
-28 -113 -23 -4 -23 -4 -21 110 2 129 4 138 29 138 10 0 20 -6 22 -12z m-74
-155 l-3 -48 -45 0 c-44 0 -45 1 -48 33 -5 53 2 62 53 62 l46 0 -3 -47z m-104
-98 c8 -9 13 -22 10 -30 -4 -10 0 -15 13 -15 22 0 48 -36 32 -45 -6 -4 -23 -2
-38 5 -15 6 -34 10 -42 8 -9 -2 -15 8 -17 30 -6 59 11 77 42 47z m-166 -101
c4 -27 -26 -40 -46 -20 -21 20 -8 48 20 44 14 -2 24 -11 26 -24z m215 -23 c5
-5 7 -19 5 -32 -6 -47 -108 -33 -108 15 0 12 3 26 8 30 8 9 83 -1 95 -13z m0
-119 c9 -8 17 -23 17 -34 0 -10 7 -18 16 -18 24 0 12 -35 -14 -38 -16 -3 -22
2 -22 16 0 11 -7 25 -16 32 -21 19 -36 49 -29 60 7 11 19 6 48 -18z"/>
<path d="M974 1004 c-15 -22 -15 -27 -3 -39 12 -12 14 -10 14 18 0 25 4 32 20
32 24 0 34 -43 13 -56 -9 -6 -9 -9 -1 -9 7 0 17 9 23 21 9 16 8 25 -6 40 -23
26 -40 24 -60 -7z"/>
<path d="M1180 996 c0 -4 10 -20 22 -36 17 -24 29 -30 58 -30 40 0 104 19 95
28 -3 3 3 14 12 25 18 20 17 20 -7 12 -33 -11 -140 -12 -162 -1 -10 4 -18 5
-18 2z"/>
<path d="M2968 961 c-39 -22 -45 -43 -7 -24 27 14 45 31 38 37 -2 2 -16 -4
-31 -13z"/>
<path d="M2828 919 c-38 -22 -68 -44 -68 -50 0 -12 6 -12 42 7 27 14 108 84
97 84 -2 0 -34 -18 -71 -41z"/>
<path d="M1707 867 c-64 -59 -67 -64 -66 -104 2 -34 -6 -54 -39 -105 -22 -35
-46 -75 -53 -90 -11 -25 -36 -44 -46 -34 -3 2 13 35 35 73 22 37 45 86 53 108
7 22 17 46 23 53 5 7 6 15 3 18 -7 8 -104 -73 -111 -93 -4 -8 9 -3 26 13 28
23 34 24 36 10 5 -26 -92 -198 -117 -207 -16 -7 -21 -4 -21 9 -1 15 -2 14 -12
-3 -12 -19 -12 -19 -19 5 -6 21 -7 20 -8 -12 -1 -21 0 -38 2 -38 42 2 199 76
279 133 89 63 200 161 187 166 -25 8 -39 29 -39 59 0 16 -6 35 -14 41 -11 9
-15 4 -20 -30 -4 -22 -18 -63 -31 -89 -33 -66 -32 -70 10 -27 20 21 45 37 57
37 17 0 9 -11 -38 -55 -32 -30 -65 -52 -72 -50 -8 3 -23 -2 -35 -10 -25 -18
-15 -20 16 -3 19 10 21 9 9 -4 -7 -9 -27 -23 -45 -32 -18 -9 -42 -24 -54 -32
-34 -24 -29 -3 17 73 29 48 40 78 40 106 0 34 6 46 42 80 49 47 64 33 19 -18
-17 -20 -34 -48 -37 -63 -4 -15 -15 -44 -25 -64 -11 -21 -19 -43 -19 -50 0 -7
17 19 37 57 20 39 48 84 64 102 24 28 50 116 38 127 -2 2 -34 -24 -72 -57z"/>
<path d="M2835 849 c-22 -10 -48 -18 -57 -18 -31 -2 -39 -37 -37 -169 2 -145
11 -192 40 -199 22 -6 25 -23 7 -41 -15 -15 -3 -14 42 3 31 12 27 20 -7 16
-27 -4 -11 9 36 30 l49 21 7 98 c8 116 -1 213 -24 250 l-16 27 -40 -18z m39
-178 l1 -174 -44 -13 c-25 -7 -48 -11 -52 -9 -3 3 -7 49 -9 102 -1 54 -2 125
-3 158 -1 60 -1 60 35 77 20 10 39 22 43 28 4 6 12 9 18 7 7 -2 11 -61 11
-176z"/>
<path d="M2965 812 c-29 -21 -37 -61 -33 -180 1 -67 8 -125 13 -130 6 -6 20
-13 33 -17 18 -5 22 -2 22 14 0 14 -5 19 -15 15 -22 -9 -25 8 -28 143 -3 118
-2 122 20 132 13 6 23 15 23 21 0 12 -20 13 -35 2z"/>
<path d="M17 752 c-13 -19 -19 -170 -7 -177 5 -3 12 5 15 17 9 35 1 175 -8
160z"/>
<path d="M1799 682 c-91 -99 -193 -336 -249 -580 -21 -92 -21 -110 -1 -98 18
12 62 110 58 128 -3 10 -1 16 4 13 4 -3 11 7 15 22 3 15 8 34 10 42 2 7 7 34
10 60 9 79 42 197 70 253 46 92 125 198 146 198 14 0 9 -23 -11 -44 -28 -31
-148 -256 -137 -256 3 0 33 54 68 120 70 134 88 134 37 -1 -42 -114 -74 -211
-95 -289 -9 -36 -25 -81 -34 -100 -10 -19 -20 -61 -24 -92 -5 -47 -3 -58 8
-58 10 0 17 14 21 38 10 58 13 61 14 10 1 -69 21 -59 21 10 1 132 26 225 83
306 21 30 31 70 15 60 -4 -3 -8 -12 -8 -20 0 -8 -4 -14 -8 -14 -10 0 1 72 18
118 10 28 14 31 28 20 13 -11 14 -10 9 14 -4 16 0 56 9 94 14 55 19 63 31 52
11 -12 10 -23 -7 -73 -23 -68 -24 -77 -5 -51 24 31 48 13 41 -32 -8 -49 4 -66
40 -59 21 4 35 0 51 -15 14 -13 39 -22 67 -24 55 -3 74 -12 55 -26 -10 -7 -6
-8 12 -4 18 4 35 -1 52 -14 31 -25 51 -26 43 -3 -6 15 -5 16 11 1 10 -9 29
-19 43 -23 19 -6 16 -1 -14 19 -32 23 -41 25 -54 14 -10 -8 -13 -9 -9 -1 12
19 -256 273 -288 273 -3 0 -18 12 -33 26 -52 49 -56 49 -113 -14z m169 -41
c10 -6 11 -13 1 -34 -17 -37 -29 -34 -29 8 0 36 5 41 28 26z m177 -155 l50
-46 -35 6 c-19 4 -43 11 -52 15 -9 5 -29 9 -44 9 -26 0 -27 1 -21 45 4 25 3
45 -2 45 -5 0 -26 -19 -45 -42 -20 -23 -39 -39 -42 -35 -4 3 6 36 22 72 l28
65 46 -44 c25 -24 68 -64 95 -90z m-521 -243 c-7 -32 -13 -61 -14 -65 0 -13
-20 -9 -20 3 0 24 32 119 40 119 4 0 2 -26 -6 -57z"/>
<path d="M641 710 c0 -33 44 -89 52 -66 4 9 -2 21 -13 29 -11 7 -24 24 -29 38
l-10 24 0 -25z"/>
<path d="M1420 700 c0 -6 -12 -15 -27 -21 -16 -6 -23 -13 -16 -16 6 -2 23 3
37 13 26 17 34 34 16 34 -5 0 -10 -5 -10 -10z"/>
<path d="M228 684 c-5 -7 -10 -44 -12 -83 -1 -39 -5 -74 -8 -76 -3 -3 -24 2
-48 10 -23 8 -61 15 -83 15 -38 0 -39 -1 -24 -18 10 -10 17 -31 17 -46 0 -15
4 -25 8 -22 5 3 7 19 4 37 -4 27 -2 30 14 25 60 -18 109 -24 125 -15 23 12 31
-1 24 -40 -3 -18 -1 -31 5 -31 5 0 10 18 10 40 0 29 4 40 15 40 8 0 22 11 30
24 20 31 8 59 -35 81 -19 10 -30 24 -32 42 -2 17 -6 23 -10 17z m46 -90 c21
-8 21 -40 0 -48 -21 -8 -34 1 -34 23 0 28 9 34 34 25z"/>
<path d="M1394 642 c-7 -4 -9 -23 -4 -52 l6 -45 5 53 c2 28 4 52 4 52 0 0 -5
-4 -11 -8z"/>
<path d="M1595 522 c-22 -21 -53 -63 -68 -93 -16 -30 -21 -45 -12 -34 40 51
124 165 122 165 -2 0 -21 -17 -42 -38z"/>
<path d="M1371 521 c-1 -8 -8 -11 -20 -8 -14 3 -21 -2 -25 -18 -3 -13 -9 -30
-12 -39 -4 -11 -1 -16 10 -16 9 0 16 7 16 15 0 8 9 24 21 36 11 11 18 26 15
32 -3 8 -5 8 -5 -2z"/>
<path d="M326 498 c-37 -53 2 -118 70 -118 48 0 36 12 -19 19 l-42 6 1 50 c0
54 -1 54 72 39 29 -6 32 -9 32 -45 0 -22 5 -39 10 -39 6 0 10 17 10 38 0 31
-5 41 -29 55 -41 24 -86 22 -105 -5z"/>
<path d="M1060 436 c-47 -41 -87 -72 -89 -70 -3 3 24 32 60 65 l64 61 -61 -51
c-131 -108 -164 -169 -164 -300 l0 -65 48 95 c58 115 110 195 169 257 l45 47
-32 -45 c-76 -106 -147 -220 -181 -290 -54 -112 -57 -137 -4 -40 26 47 72 122
103 168 90 131 152 243 134 242 -4 -1 -45 -34 -92 -74z m-134 -143 c-8 -16
-21 -61 -30 -99 -11 -53 -15 -61 -15 -33 -2 58 40 181 56 165 3 -2 -2 -17 -11
-33z"/>
<path d="M1478 452 c-37 -41 -122 -162 -114 -162 3 0 19 21 37 46 17 26 51 71
75 100 51 63 52 71 2 16z"/>
<path d="M1472 398 c-42 -56 -93 -138 -161 -256 -23 -40 -46 -70 -50 -68 -8 5
-34 -65 -27 -72 5 -4 97 136 160 243 26 44 65 108 87 143 21 34 37 62 34 62
-2 0 -22 -24 -43 -52z"/>
<path d="M101 431 c8 -5 40 -12 70 -16 38 -4 48 -3 33 4 -31 14 -123 25 -103
12z"/>
<path d="M1293 409 c-15 -5 -20 -14 -16 -28 4 -15 1 -21 -11 -21 -10 0 -15 -4
-12 -9 3 -5 -8 -28 -25 -52 l-32 -44 42 40 c22 21 41 34 41 29 0 -12 -70 -115
-104 -153 l-21 -25 29 22 c16 12 31 20 33 18 3 -2 -7 -41 -21 -86 -30 -93 -31
-100 -13 -100 7 0 34 70 65 168 87 274 83 256 45 241z"/>
<path d="M1348 366 c3 -21 1 -27 -9 -21 -9 6 -10 3 -5 -10 4 -10 3 -21 -2 -24
-5 -3 -21 -44 -35 -91 -28 -92 -30 -124 -2 -38 10 29 30 81 46 116 30 66 36
87 20 77 -5 -3 -11 0 -14 7 -2 7 -2 0 1 -16z"/>
<path d="M2875 380 c-4 -12 -6 -63 -4 -114 4 -80 2 -91 -13 -94 -12 -2 -18 3
-18 16 0 18 -7 19 -96 18 l-97 -1 -14 -40 c-17 -49 -11 -84 7 -37 7 18 20 37
30 42 21 11 119 14 144 4 22 -8 20 -37 -4 -59 -11 -10 -20 -25 -20 -33 0 -12
-9 -13 -46 -8 l-47 6 29 -23 c16 -12 29 -20 30 -17 1 3 11 -3 22 -13 23 -21
41 -5 22 18 -14 17 -9 25 49 88 19 20 42 37 51 37 8 0 32 6 53 14 31 10 35 15
21 20 -10 4 -21 1 -25 -5 -4 -7 -14 -9 -22 -6 -10 4 -16 30 -21 94 -8 97 -19
131 -31 93z"/>
<path d="M1839 351 c-23 -18 -75 -108 -67 -116 2 -2 17 21 33 51 16 30 33 54
37 54 15 0 7 -85 -12 -140 -11 -30 -19 -65 -20 -77 0 -30 -16 -38 -23 -12 -7
27 -31 19 -35 -12 -2 -17 0 -20 6 -10 16 22 23 -4 11 -38 -13 -36 -12 -38 16
-43 16 -2 21 3 23 27 2 17 19 81 38 143 33 108 44 192 25 192 -4 0 -19 -9 -32
-19z"/>
<path d="M2208 341 c-25 -10 -59 -28 -76 -39 -22 -16 -32 -18 -40 -10 -9 9
-12 9 -12 0 0 -7 4 -12 9 -12 4 0 -17 -26 -48 -58 -31 -31 -59 -56 -62 -55 -3
1 -6 -3 -6 -10 0 -7 -14 -34 -30 -62 -31 -51 -56 -115 -33 -85 9 11 13 12 17
3 2 -7 9 -13 14 -13 5 0 4 11 -3 25 -9 21 -6 32 23 80 77 127 222 235 316 235
54 0 95 -20 152 -74 27 -25 39 -33 32 -19 -16 32 -94 92 -132 103 -46 14 -67
12 -121 -9z"/>
<path d="M2320 310 c-8 -5 -10 -10 -4 -10 11 0 111 -148 164 -243 18 -32 37
-56 44 -54 15 5 20 52 7 74 -9 15 -11 12 -11 -17 -1 -30 -2 -32 -10 -13 -5 12
-10 30 -12 40 -2 10 -6 20 -10 23 -4 3 -15 23 -24 45 -15 36 -15 38 1 25 9 -7
23 -27 31 -43 9 -16 18 -26 21 -23 11 11 -47 93 -105 149 -64 60 -68 62 -92
47z"/>
<path d="M190 232 l0 -82 -40 -16 c-22 -9 -40 -20 -40 -25 0 -13 12 -11 55 11
36 18 39 23 36 55 -2 26 1 35 13 35 18 0 20 5 7 29 -12 22 1 44 25 39 13 -2
19 -12 19 -29 0 -14 5 -26 11 -26 7 0 12 12 11 26 -2 24 1 26 40 26 22 0 44 3
48 6 11 11 -58 19 -114 13 -38 -3 -57 -1 -62 8 -5 7 -9 -23 -9 -70z"/>
<path d="M1043 238 c-43 -84 -113 -229 -113 -234 0 -2 5 -4 10 -4 10 0 47 74
116 233 18 42 31 77 29 77 -3 0 -22 -33 -42 -72z"/>
<path d="M2129 264 c-10 -12 -14 -26 -10 -37 6 -17 8 -17 20 -4 7 9 11 26 9
38 -3 21 -3 21 -19 3z"/>
<path d="M2290 272 c0 -5 16 -35 37 -68 20 -32 50 -84 66 -114 39 -70 57 -90
80 -90 18 0 18 1 0 31 -82 143 -183 275 -183 241z"/>
<path d="M399 250 c-3 -19 -10 -25 -31 -25 -15 -1 -30 -4 -34 -7 -3 -4 -13 -4
-22 -1 -14 4 -14 3 -3 -5 7 -5 11 -15 7 -20 -4 -6 6 -5 21 3 15 8 33 15 39 15
18 0 36 27 32 47 -4 14 -6 12 -9 -7z"/>
<path d="M1910 203 c-14 -9 -28 -22 -33 -27 -10 -15 -2 -116 9 -116 15 1 24
52 13 73 -16 29 4 67 35 67 14 0 28 5 31 10 10 16 -28 11 -55 -7z"/>
<path d="M2085 146 c-14 -32 -14 -43 -4 -63 7 -12 18 -23 25 -23 20 0 35 -35
22 -48 -9 -9 -8 -12 3 -12 17 0 59 79 59 110 0 25 -40 62 -59 55 -8 -3 -18 0
-22 7 -6 9 -13 0 -24 -26z m83 -38 c2 -19 -3 -30 -19 -39 -20 -10 -25 -9 -41
11 -24 30 -8 63 30 58 21 -2 28 -9 30 -30z"/>
<path d="M330 148 c-30 -33 -21 -57 35 -96 48 -35 50 -35 78 -18 27 15 31 15
47 1 9 -8 21 -15 26 -15 5 0 1 5 -8 11 -10 5 -18 19 -18 29 0 11 -4 20 -8 20
-4 0 -16 14 -25 30 -18 30 -63 60 -91 60 -8 0 -25 -10 -36 -22z m94 -34 c13
-20 22 -43 19 -51 -8 -21 -48 -12 -49 12 -1 11 -2 24 -3 29 -1 5 -8 3 -16 -4
-18 -15 -45 -6 -45 15 0 15 30 33 57 34 7 1 23 -15 37 -35z"/>
<path d="M634 156 c11 -9 27 -16 36 -16 9 0 27 -11 40 -25 13 -14 28 -25 34
-25 6 0 5 4 -2 9 -8 4 -19 19 -26 32 -8 17 -21 24 -42 25 -17 1 -37 4 -45 8
-8 4 -5 0 5 -8z"/>
<path d="M2907 133 c-21 -3 -27 -9 -23 -20 4 -9 -6 -26 -25 -44 -17 -16 -26
-29 -20 -29 6 0 11 -7 11 -16 0 -8 5 -12 10 -9 6 4 9 13 8 21 -2 7 6 27 17 44
14 22 28 30 48 30 18 0 27 5 25 12 -5 14 -14 16 -51 11z"/>
<path d="M123 83 c6 -9 -10 -13 -55 -16 -59 -3 -57 -4 15 -4 43 0 76 0 75 1
-2 1 -12 8 -22 16 -11 8 -17 10 -13 3z"/>
<path d="M2025 80 c-4 -7 1 -21 12 -32 17 -16 21 -17 26 -5 7 20 -28 53 -38
37z"/>
<path d="M1286 45 c-20 -30 -21 -46 -2 -39 8 3 16 19 18 35 5 35 5 36 -16 4z"/>
<path d="M2670 49 c0 -23 22 -49 40 -49 11 0 20 5 20 10 0 6 -7 10 -16 10 -9
0 -18 9 -21 20 -6 21 -23 28 -23 9z"/>
<path d="M2 15 c2 -3 27 -7 54 -10 34 -3 44 -2 34 5 -15 10 -98 14 -88 5z"/>
</g>
</svg>
