<svg xmlns="http://www.w3.org/2000/svg" viewBox="0 23.5 92.30000305175781 36.849998474121094" data-asc="1.2" width="92.30000305175781" height="36.849998474121094"><defs/><g fill="#ffffff"><g transform="translate(0, 0)"><path d="M3.95 60.20Q2.40 60.20 1.20 59.45Q0 58.70 0 56.95Q0 54.20 1.17 51.35Q2.35 48.50 4.08 45.73Q5.80 42.95 7.52 40.30Q9.25 37.65 10.43 35.25Q11.60 32.85 11.60 30.80Q11.60 29.15 10.80 29.15Q10.25 29.15 9.55 30.02Q8.85 30.90 8.55 32.60L8.00 32.50Q8.00 29.65 9.35 27.67Q10.70 25.70 12.80 24.70Q14.90 23.70 17.10 23.70Q19.65 23.70 21.88 25.15Q24.10 26.60 24.95 29.75Q25.30 31 25.48 32.55Q25.65 34.10 25.70 35.22Q25.75 36.35 25.75 36.35Q25.85 40.40 25.93 43.20Q26.00 46 26.20 47.90Q26.40 49.80 26.75 51.10Q27.10 52.35 27.68 53.13Q28.25 53.90 29.15 53.90Q30.00 53.90 30.63 53.40Q31.25 52.90 31.45 52.45L31.80 52.70Q31.80 55 30.90 56.70Q30.00 58.40 28.55 59.30Q27.10 60.20 25.50 60.20Q23.95 60.20 22.48 59.27Q21.00 58.35 19.90 56.40Q18.80 54.45 18.45 51.35Q16.90 51.25 15.43 51.17Q13.95 51.10 12.75 51.10Q11.95 51.10 11.23 51.13Q10.50 51.15 9.80 51.20Q9.35 52.75 9.08 54.33Q8.80 55.90 8.80 57.40Q8.80 58.55 7.30 59.38Q5.80 60.20 3.95 60.20M11.45 46.55Q12.70 46.20 14.10 46.08Q15.50 45.95 17.10 45.95L18.20 45.95Q18.10 42.25 17.93 38.35Q17.75 34.45 16.65 31.10Q16.25 34.70 14.65 38.65Q13.05 42.60 11.45 46.55ZM46.15 60.35Q41.60 60.35 38.70 58.65Q35.80 56.95 35.80 53.10Q35.80 52.70 35.82 52.38Q35.85 52.05 35.90 51.85Q36.10 50.45 36.75 48.40Q37.40 46.35 38.25 44.02Q39.10 41.70 39.90 39.45Q40.70 37.20 41.25 35.33Q41.80 33.45 41.80 32.30Q41.80 31 40.95 31Q40 31 38.60 32.42Q37.20 33.85 35.65 36.40L35.35 36.25Q35.35 32.95 36.65 30.55Q37.95 28.15 40.10 26.57Q42.25 25 44.90 24.25Q47.55 23.50 50.25 23.50Q53.60 23.50 56.55 24.57Q59.50 25.65 61.38 27.65Q63.25 29.65 63.25 32.55Q63.25 37.75 56.90 40.65Q60.65 41.50 62.40 43.50Q64.15 45.50 64.15 47.95Q64.15 50.10 62.88 52.27Q61.60 54.45 59.25 56.27Q56.90 58.10 53.58 59.23Q50.25 60.35 46.15 60.35M48.10 39.15Q50.40 39.20 52.13 38.42Q53.85 37.65 54.83 36.42Q55.80 35.20 55.80 33.90Q55.80 32.20 54 30.88Q52.20 29.55 48.35 29.55Q48.55 30.50 48.63 31.45Q48.70 32.40 48.70 33.30Q48.70 34.75 48.52 36.20Q48.35 37.65 48.10 39.15M47.55 54.25Q49.70 54.25 51.35 53.38Q53 52.50 53.95 51.13Q54.90 49.75 54.90 48.30Q54.90 46.30 53 44.60Q51.10 42.90 47.05 42.50Q46.85 44.05 46.22 45.80Q45.60 47.55 45.05 49.15Q44.50 50.75 44.50 51.95Q44.50 53 45.15 53.63Q45.80 54.25 47.55 54.25ZM76.20 60.35Q72.85 60.35 70.65 59.13Q68.45 57.90 67.40 55.92Q66.35 53.95 66.35 51.65Q66.35 49.60 67.15 47.60Q67.95 45.60 69.52 43.95Q71.10 42.30 73.35 41.35Q71.30 40.05 70.27 38.22Q69.25 36.40 69.25 34.40Q69.25 31.80 70.95 29.35Q72.65 26.90 75.90 25.30Q79.15 23.70 83.70 23.70Q86.85 23.70 88.72 24.48Q90.60 25.25 91.45 26.48Q92.30 27.70 92.30 29.10Q92.30 30.70 91.30 32.27Q90.30 33.85 88.42 34.85Q86.55 35.85 83.85 35.85Q84.65 33.50 84.65 31.95Q84.65 30.40 84.00 29.70Q83.35 29 82.40 29Q81.40 29 80.27 29.75Q79.15 30.50 78.40 31.85Q77.65 33.20 77.65 35Q77.65 35.95 77.95 37.13Q78.25 38.30 78.90 39.45Q80.00 38.75 80.92 38.42Q81.85 38.10 82.60 38.10Q84.15 38.10 84.85 39.17Q85.55 40.25 85.55 41.60Q85.55 43.20 84.57 44.65Q83.60 46.10 81.70 46.10Q79.95 46.10 77.60 44.45Q74.85 46.40 74.85 49.05Q74.85 51.10 76.12 52.15Q77.40 53.20 79.40 53.20Q81.95 53.20 85.10 51.42Q88.25 49.65 90.70 46.10L91.10 46.35Q91.00 49.85 89.67 52.48Q88.35 55.10 86.22 56.85Q84.10 58.60 81.50 59.48Q78.90 60.35 76.20 60.35Z"/></g></g></svg>