<?xml version="1.0" standalone="no"?>
<!DOCTYPE svg PUBLIC "-//W3C//DTD SVG 20010904//EN"
 "http://www.w3.org/TR/2001/REC-SVG-20010904/DTD/svg10.dtd">
<svg version="1.0" xmlns="http://www.w3.org/2000/svg"
 width="300.000000pt" height="224.000000pt" viewBox="0 0 300.000000 224.000000"
 preserveAspectRatio="xMidYMid meet">
<metadata>
Created by potrace 1.10, written by Peter Selinger 2001-2011
</metadata>
<g transform="translate(0.000000,224.000000) scale(0.100000,-0.100000)"
fill="#902323" stroke="none">
<path d="M0 1158 l0 -1083 63 -2 c50 -1 64 2 64 13 0 9 -6 13 -15 9 -7 -3 -12
0 -10 6 4 11 41 34 71 43 14 5 17 20 19 103 0 54 3 83 5 65 4 -26 7 -30 21
-24 24 12 159 7 175 -6 10 -9 17 -8 26 1 11 10 11 8 3 -8 -6 -11 -13 -28 -16
-38 -3 -9 -14 -20 -23 -23 -10 -3 -30 -11 -45 -19 -21 -10 -26 -11 -22 0 5 11
-28 29 -48 26 -4 0 -6 12 -5 27 2 22 -3 28 -22 30 -22 4 -24 1 -18 -32 4 -23
2 -35 -5 -33 -6 1 -12 -11 -15 -27 -3 -23 -1 -27 12 -22 13 5 14 2 4 -15 -6
-11 -8 -26 -6 -33 3 -6 -4 -23 -15 -36 -18 -22 -25 -24 -109 -21 -85 2 -89 1
-89 -20 0 -20 4 -21 69 -17 56 3 66 1 52 -9 -13 -10 46 -12 302 -13 272 0 317
2 317 15 0 21 34 37 48 23 7 -7 12 -18 12 -25 0 -7 8 -13 18 -13 13 0 17 8 16
35 -1 20 -3 37 -5 39 -2 2 -23 6 -47 9 -28 3 -53 14 -71 31 -15 14 -36 26 -47
26 -12 0 -29 9 -39 20 -10 11 -13 20 -7 20 6 0 14 -4 17 -10 3 -5 19 -10 34
-10 21 0 36 -10 56 -36 19 -25 31 -32 38 -25 7 7 3 21 -14 46 -19 28 -37 39
-83 54 -50 15 -55 19 -35 24 13 4 34 7 47 7 14 0 20 4 17 10 -4 6 -16 8 -28 4
-16 -5 -27 1 -48 27 l-27 33 -23 -25 c-13 -14 -17 -17 -9 -6 14 17 13 18 -12
12 -32 -8 -58 12 -58 44 0 27 41 75 51 60 4 -7 14 -9 23 -6 12 5 13 12 5 36
-7 21 -7 36 0 50 6 11 9 26 6 33 -12 34 -13 69 -3 66 12 -4 17 -28 19 -98 1
-50 12 -70 41 -70 11 0 16 -4 12 -11 -4 -6 -19 -9 -36 -5 -23 5 -29 2 -26 -10
2 -8 6 -15 11 -15 4 1 23 1 42 1 34 0 35 1 35 40 0 33 -4 42 -25 52 -27 12
-31 23 -14 33 6 4 21 -3 34 -15 16 -15 25 -18 30 -10 4 6 14 9 22 6 11 -5 13
-1 6 17 -9 27 -9 77 1 98 5 12 1 18 -13 22 -12 3 -24 13 -28 24 -3 10 -15 29
-25 42 -19 26 -24 61 -8 61 6 0 10 -9 10 -19 0 -11 9 -26 20 -34 12 -8 18 -21
15 -29 -6 -16 19 -43 33 -34 15 9 0 75 -23 100 -12 13 -25 33 -27 44 -5 17 -1
21 20 24 35 4 44 38 10 39 l-23 0 22 9 c23 10 29 29 37 137 l4 62 -35 13 c-31
11 -34 16 -30 43 2 16 -2 53 -9 80 -11 37 -14 108 -12 275 2 230 2 350 -1 385
-1 11 -1 27 0 35 1 8 -2 22 -5 31 -10 22 18 49 44 42 11 -3 20 -9 20 -15 0 -5
-8 -4 -19 1 -14 8 -22 7 -31 -4 -16 -19 -4 -35 24 -35 31 0 56 -30 55 -66 -1
-16 3 -45 8 -64 5 -19 8 -159 6 -310 -1 -151 -3 -297 -3 -323 0 -28 -4 -46
-10 -42 -6 3 -7 133 -4 343 5 363 3 378 -44 365 -21 -5 -22 -10 -23 -182 -1
-97 -3 -223 -4 -281 -2 -76 1 -110 11 -125 8 -11 14 -43 14 -71 0 -53 10 -69
45 -75 16 -4 19 -13 21 -64 1 -33 3 -64 3 -70 1 -5 16 -11 34 -12 20 -2 40
-12 53 -27 12 -14 24 -23 26 -20 3 2 5 -10 5 -26 0 -17 -4 -30 -9 -30 -4 0 -8
-15 -8 -32 1 -27 8 -37 36 -55 28 -18 38 -20 53 -11 10 6 30 8 44 4 25 -6 27
-11 27 -55 0 -26 3 -69 6 -94 l7 -46 43 32 c49 36 52 46 24 72 -36 33 -26 53
65 129 l30 25 -33 31 c-17 17 -32 34 -33 38 -3 33 -15 65 -48 135 -22 45 -42
98 -46 117 -11 60 -36 143 -55 185 -30 67 -43 99 -46 115 -4 19 14 40 43 51
20 8 22 14 21 89 -1 76 -3 83 -25 93 -16 7 -25 22 -29 49 -4 21 -11 41 -15 44
-17 10 -9 71 11 89 12 11 20 31 20 50 0 37 19 58 44 49 12 -5 16 0 16 18 0 36
28 70 48 59 13 -7 20 -3 34 20 15 25 23 29 52 25 25 -3 43 2 65 18 23 17 42
22 73 20 23 -1 47 1 54 7 22 18 78 18 105 -2 18 -12 29 -15 36 -8 13 13 89 -6
100 -25 4 -7 25 -16 45 -19 38 -6 118 -70 105 -84 -4 -3 7 -14 23 -24 17 -11
30 -25 30 -32 0 -7 11 -24 26 -37 16 -16 24 -33 22 -50 -1 -14 5 -36 15 -50
10 -14 13 -28 8 -34 -5 -6 -9 -24 -9 -40 0 -15 -5 -31 -11 -35 -17 -11 -30
-66 -32 -133 -2 -45 2 -63 17 -79 42 -46 15 -204 -45 -266 -17 -18 -21 -34
-21 -88 0 -50 3 -65 14 -65 23 0 53 -46 76 -116 18 -55 28 -69 62 -90 69 -44
70 -43 68 17 -4 140 -2 159 25 171 21 9 25 18 25 53 0 34 5 46 24 59 14 8 27
26 29 38 l4 23 2 -22 c0 -13 5 -23 10 -23 5 0 9 30 10 66 1 81 12 97 63 92
l39 -4 -3 39 c-2 29 2 42 15 51 15 9 21 7 32 -7 10 -15 13 -62 13 -205 l-1
-187 -9 195 c-6 107 -12 197 -14 200 -11 10 -24 -27 -19 -53 3 -16 8 -112 11
-213 7 -172 6 -185 -12 -205 -18 -20 -18 -21 1 -35 10 -8 14 -14 8 -14 -7 0
-14 -15 -16 -32 -3 -29 -4 -28 -5 9 -2 40 -3 42 -32 40 -33 -2 -36 -6 -46 -72
-4 -32 -3 -46 4 -41 16 10 8 -21 -12 -43 -11 -12 -15 -27 -12 -39 7 -21 34
-48 40 -41 3 3 14 68 16 90 0 15 29 17 54 4 25 -13 26 -13 28 13 0 15 1 33 1
39 -1 11 41 51 94 94 13 9 15 122 3 114 -8 -5 6 90 14 104 3 5 -1 14 -9 21
-18 15 -24 49 -28 178 -3 85 -1 107 15 132 16 28 22 30 80 32 35 1 73 1 86 0
12 0 22 3 22 9 0 5 6 9 13 9 7 0 13 -9 13 -20 0 -18 -7 -20 -84 -20 -125 0
-122 3 -122 -146 0 -69 5 -134 10 -145 10 -17 22 -19 115 -19 57 0 105 -3 107
-7 2 -5 0 -39 -3 -78 -4 -50 -6 -58 -7 -27 -2 52 -18 86 -38 78 -8 -3 -14 -1
-14 5 0 6 -8 5 -21 -2 -17 -8 -20 -8 -14 1 6 9 3 10 -10 3 -15 -9 -18 -23 -16
-90 2 -68 -1 -81 -18 -97 -26 -23 -27 -35 -3 -31 9 2 17 4 17 5 0 9 69 9 85 0
17 -9 20 -8 20 10 0 12 7 20 16 20 13 0 14 -3 5 -14 -8 -10 -9 -16 -1 -21 5
-3 10 0 10 7 1 8 8 4 19 -9 16 -19 18 -39 17 -128 -1 -82 -4 -108 -16 -115
-13 -9 -13 -11 0 -20 11 -6 15 -27 15 -71 0 -51 -4 -64 -22 -79 -23 -18 -31
-50 -13 -50 6 0 1 -9 -10 -20 -20 -20 -20 -22 -4 -38 17 -16 16 -17 -12 -22
-25 -5 -29 -10 -27 -38 0 -19 9 -42 18 -52 15 -17 15 -20 0 -44 -9 -13 -15
-35 -13 -48 3 -19 8 -13 34 34 27 48 31 65 27 110 -2 29 -1 64 3 78 l7 25 6
-25 c4 -14 12 -25 19 -24 7 1 37 2 67 2 l55 2 0 38 c0 25 7 45 18 55 20 18 72
23 72 7 0 -5 -11 -10 -24 -10 -46 0 -53 -8 -47 -53 5 -34 10 -43 29 -45 12 -2
22 -6 22 -10 0 -4 -44 -7 -97 -7 l-98 0 -3 -43 c-2 -26 -15 -61 -33 -90 -33
-52 -36 -70 -12 -79 14 -5 13 -8 -6 -15 -16 -5 -21 -13 -17 -24 3 -9 6 -24 6
-35 0 -17 8 -19 62 -19 61 0 61 0 42 21 -14 16 -16 24 -7 37 8 13 22 16 62 14
36 -2 51 0 51 9 0 7 12 25 26 40 36 38 26 59 -28 60 -128 4 -134 2 -148 -51
-6 -22 -15 -38 -20 -35 -9 6 -1 42 21 88 l13 28 95 -3 c87 -3 96 -5 93 -21 -2
-13 2 -18 14 -15 16 3 18 16 16 115 -1 65 3 115 9 118 5 4 8 1 7 -7 -2 -7 2
-12 7 -11 14 2 18 -47 5 -63 -8 -8 -8 -14 0 -19 14 -9 13 -58 -2 -74 -8 -8 -8
-11 -2 -8 7 4 14 -2 17 -13 8 -31 37 -25 38 8 2 23 2 24 6 5 3 -15 12 -23 24
-23 18 0 19 8 19 144 l0 144 -29 7 c-34 7 -38 22 -39 165 -2 105 10 146 45
155 19 4 23 12 23 41 0 26 -3 33 -12 27 -29 -18 -41 -10 -15 11 15 12 27 31
27 43 0 22 -1 22 -30 5 -17 -10 -30 -25 -30 -36 0 -11 -3 -17 -6 -13 -14 13 7
53 36 69 25 14 30 23 30 54 0 36 0 37 -20 19 -11 -10 -17 -22 -13 -28 4 -6 1
-7 -6 -3 -7 5 -10 14 -7 21 3 8 0 16 -7 19 -7 2 -3 5 9 5 38 2 44 20 44 128
l0 104 -30 -23 c-29 -21 -30 -23 -30 -112 -1 -82 -2 -89 -15 -72 -14 18 -15
14 -15 -44 0 -35 -2 -61 -4 -59 -3 3 -15 196 -16 252 0 26 -19 21 -64 -20
l-41 -37 -2 -106 c-3 -130 -4 -136 -14 -80 -12 72 -11 220 2 220 19 0 100 71
94 81 -4 5 -9 66 -12 136 -4 95 -2 125 6 117 7 -7 12 -59 13 -143 2 -94 6
-135 15 -143 7 -6 13 -19 13 -29 0 -10 5 -21 12 -25 8 -5 9 -2 5 9 -7 19 34
73 63 82 16 5 20 15 20 47 0 31 -3 39 -14 35 -10 -4 -13 -1 -9 8 3 8 9 12 14
9 5 -3 9 18 9 46 0 38 -3 49 -12 44 -10 -6 -10 -4 0 7 6 7 12 22 12 33 0 17
-9 12 -48 -27 -67 -66 -73 -59 -6 9 l54 56 -1 222 c-1 121 -4 214 -7 206 -22
-62 -257 -354 -292 -363 -11 -3 -20 -1 -20 4 0 5 8 9 18 9 9 0 34 24 54 53 21
28 71 95 113 147 141 178 136 170 133 255 l-3 75 -34 -65 c-18 -36 -47 -80
-65 -98 -17 -19 -43 -53 -58 -78 -15 -24 -47 -71 -70 -104 -24 -33 -50 -71
-58 -83 -14 -22 -15 -19 -16 55 -1 145 -4 175 -19 169 -9 -3 -12 0 -8 10 3 7
9 14 13 14 14 0 21 -32 27 -117 3 -46 10 -83 14 -83 5 0 9 4 9 8 0 5 8 17 18
28 16 17 102 149 102 157 0 1 -12 4 -26 5 -37 3 -55 21 -54 51 5 68 -1 211 -8
211 -4 0 -6 -46 -4 -102 2 -57 2 -101 -1 -98 -5 4 -11 84 -16 187 -1 9 -29 12
-98 12 -85 0 -94 -1 -76 -14 15 -10 20 -26 20 -59 1 -31 9 -55 25 -78 40 -55
43 -75 43 -271 l-1 -188 -30 -30 c-28 -27 -33 -29 -57 -18 -14 6 -29 19 -32
28 -5 14 -12 164 -19 392 l-1 54 -66 0 c-90 0 -99 9 -99 98 0 39 3 68 6 65 3
-4 6 -35 6 -70 0 -34 5 -68 10 -74 11 -15 134 -6 171 13 22 11 27 21 29 53 1
22 2 48 2 58 1 9 -6 17 -14 17 -8 0 -20 4 -26 7 -15 10 6 10 -1331 14 l-1203
4 0 -1082z m2647 1005 c-3 -10 -5 -4 -5 12 0 17 2 24 5 18 2 -7 2 -21 0 -30z
m-2471 -8 c3 -16 8 -35 13 -44 4 -9 4 -29 0 -46 l-7 -30 -1 33 c0 19 -7 35
-16 38 -9 4 -13 15 -11 27 3 12 5 31 5 41 1 26 11 15 17 -19z m2248 0 c18 -28
46 -34 46 -10 0 8 -4 15 -10 15 -5 0 -10 5 -10 10 0 6 7 10 16 10 11 0 14 -8
12 -27 -2 -22 -8 -28 -28 -29 -14 0 -31 -4 -39 -8 -10 -7 -12 -2 -6 22 5 24 3
31 -12 35 -15 4 -15 5 -2 6 9 0 24 -10 33 -24z m-2346 -34 c-2 -22 -6 -37 -9
-33 -7 7 0 72 7 72 3 0 3 -18 2 -39z m187 -46 c1 -31 -2 -58 -7 -61 -4 -3 -8
25 -8 62 0 80 12 79 15 -1z m-188 -67 c-2 -13 -4 -3 -4 22 0 25 2 35 4 23 2
-13 2 -33 0 -45z m179 -190 c-4 -100 -10 -185 -13 -188 -3 -3 -3 51 1 120 3
69 5 153 6 188 0 34 3 62 6 62 4 0 3 -82 0 -182z m-51 143 c3 -5 1 -12 -4 -16
-6 -3 -7 -13 -4 -22 4 -11 3 -14 -5 -9 -14 9 -16 56 -3 56 6 0 12 -4 16 -9z
m2702 -13 c-3 -8 -6 -5 -6 6 -1 11 2 17 5 13 3 -3 4 -12 1 -19z m-2840 -30
c-3 -7 -5 -2 -5 12 0 14 2 19 5 13 2 -7 2 -19 0 -25z m2896 -43 c-3 -9 -8 -14
-10 -11 -3 3 -2 9 2 15 9 16 15 13 8 -4z m-2754 -67 l-2 -53 -7 45 c-7 42 -5
60 6 60 2 0 3 -24 3 -52z m2722 19 c-10 -9 -11 -8 -5 6 3 10 9 15 12 12 3 -3
0 -11 -7 -18z m-2805 -59 c9 -16 11 -27 5 -24 -5 4 -16 20 -25 36 -8 17 -10
28 -5 25 5 -4 16 -20 25 -37z m-51 -93 c-4 -152 -17 -340 -25 -348 -4 -5 -6 9
-4 30 4 48 13 285 15 378 1 47 3 62 8 45 4 -14 7 -61 6 -105z m2245 -50 c19
-22 -14 -56 -52 -53 -37 3 -36 18 1 18 16 0 34 6 40 14 17 20 -1 28 -34 16
-35 -13 -40 -13 -25 5 16 19 54 19 70 0z m-2061 -35 c5 -17 6 -28 1 -25 -5 3
-11 -23 -13 -57 -3 -55 -3 -51 -5 25 -1 48 0 87 2 87 2 0 9 -14 15 -30z m2526
-100 c-3 -5 -12 -10 -18 -10 -7 0 -6 4 3 10 19 12 23 12 15 0z m-64 -44 c-12
-14 -17 -323 -7 -375 3 -13 8 -55 10 -93 3 -39 11 -77 17 -84 9 -11 9 -14 0
-14 -16 0 -27 34 -35 110 -4 36 -10 79 -12 95 -2 17 -5 96 -5 177 -1 124 2
152 17 177 10 17 20 28 22 26 3 -3 -1 -11 -7 -19z m-2536 4 c3 -5 1 -10 -4
-10 -6 0 -11 5 -11 10 0 6 2 10 4 10 3 0 8 -4 11 -10z m94 -247 c18 4 37 0 52
-11 13 -9 25 -16 26 -14 3 2 33 -11 151 -66 29 -13 58 -22 65 -19 7 3 21 -12
31 -34 11 -22 20 -38 22 -37 1 2 3 23 5 48 4 77 14 68 26 -25 23 -181 23 -181
14 -155 -7 20 -9 12 -10 -37 -1 -35 -5 -63 -10 -63 -4 0 -7 -12 -5 -27 2 -16
1 -22 -2 -14 -5 10 -8 10 -14 1 -4 -6 -7 34 -7 89 0 58 4 101 10 101 5 0 4 6
-2 14 -8 10 -9 16 -1 21 6 3 8 11 5 16 -9 14 -45 -9 -55 -34 l-9 -22 0 23 c-1
12 -6 22 -12 22 -16 0 -216 78 -262 102 -21 11 -41 17 -45 13 -4 -4 -10 -93
-13 -198 -4 -106 -7 -193 -8 -194 -6 -9 -87 11 -129 32 -29 14 -57 23 -63 20
-5 -4 -9 -44 -9 -90 0 -46 -5 -87 -10 -90 -6 -4 -10 26 -10 84 0 80 2 91 20
101 11 6 18 15 15 21 -10 15 3 11 81 -26 40 -19 77 -35 82 -35 5 0 9 58 10
129 l2 129 -85 57 c-47 31 -89 54 -94 51 -5 -4 -10 -70 -10 -148 -1 -78 -6
-147 -11 -152 -6 -6 -8 42 -4 135 7 183 8 189 36 181 15 -4 19 -2 13 7 -4 7
20 -6 54 -29 33 -23 65 -49 70 -57 20 -37 31 -4 37 112 3 66 7 131 8 145 2 14
5 57 7 95 2 50 4 34 6 -54 l4 -123 28 5z m2341 217 c11 -20 19 -445 8 -455 -3
-3 -8 47 -12 112 -4 65 -12 124 -19 132 -9 12 -9 13 0 8 17 -11 27 51 20 126
-4 41 -11 63 -21 69 -9 5 -14 13 -11 19 10 15 23 11 35 -11z m334 8 c-6 -15
-64 -63 -64 -53 0 6 61 65 67 65 1 0 0 -6 -3 -12z m-189 -8 c3 -5 1 -10 -4
-10 -6 0 -11 5 -11 10 0 6 2 10 4 10 3 0 8 -4 11 -10z m-2599 -34 c0 -14 -5
-21 -9 -17 -4 4 -5 15 -1 24 9 24 12 21 10 -7z m2020 8 c-9 -8 -16 -17 -16
-19 0 -2 7 -11 16 -19 13 -14 13 -16 0 -16 -8 0 -18 9 -21 20 -7 21 9 50 27
50 5 0 2 -7 -6 -16z m584 -9 c0 -8 -4 -15 -10 -15 -5 0 -10 7 -10 15 0 8 5 15
10 15 6 0 10 -7 10 -15z m-540 -9 c0 -8 -4 -18 -10 -21 -5 -3 -10 3 -10 14 0
12 5 21 10 21 6 0 10 -6 10 -14z m355 -125 c-4 -3 -37 -6 -74 -7 -37 0 -72 -4
-79 -8 -9 -5 -12 5 -12 37 l0 45 38 -5 c33 -4 42 0 82 38 l45 42 3 -68 c2 -37
0 -70 -3 -74z m235 116 c0 -2 -13 -18 -30 -37 -16 -18 -27 -37 -23 -43 3 -6 1
-7 -5 -3 -19 12 -14 34 15 61 24 22 43 32 43 22z m-2767 -136 c-1 -38 -7 -79
-13 -92 -7 -17 -8 1 -4 61 6 77 10 100 18 100 1 0 1 -31 -1 -69z m75 34 c17
-36 15 -41 -8 -20 -20 18 -27 45 -12 45 5 0 14 -11 20 -25z m2673 -8 c-10 -9
-11 -8 -5 6 3 10 9 15 12 12 3 -3 0 -11 -7 -18z m-2611 -8 c0 -6 -4 -7 -10 -4
-5 3 -10 11 -10 16 0 6 5 7 10 4 6 -3 10 -11 10 -16z m2584 -21 c-5 -8 -10 -5
-14 8 -10 25 0 41 12 20 5 -9 6 -21 2 -28z m-206 -15 c-10 -2 -19 -12 -19 -21
-1 -15 -2 -15 -6 -1 -3 12 -18 16 -63 18 -50 1 -61 -1 -70 -19 -15 -28 -4 -58
23 -63 l22 -4 -23 -2 c-31 -2 -50 39 -34 74 11 24 15 25 99 24 49 -1 80 -3 71
-6z m-2011 -25 c-3 -8 -6 -5 -6 6 -1 11 2 17 5 13 3 -3 4 -12 1 -19z m-40 -20
c-3 -7 -5 -2 -5 12 0 14 2 19 5 13 2 -7 2 -19 0 -25z m1940 6 c-3 -3 -12 -4
-19 -1 -8 3 -5 6 6 6 11 1 17 -2 13 -5z m113 -34 c0 -11 -4 -20 -9 -20 -5 0
-7 9 -4 20 3 11 7 20 9 20 2 0 4 -9 4 -20z m-53 -12 c-3 -8 -6 -5 -6 6 -1 11
2 17 5 13 3 -3 4 -12 1 -19z m-1606 -84 c14 -18 3 -45 -22 -52 -12 -3 -12 -2
0 6 22 16 22 42 0 42 -13 0 -19 -7 -19 -22 0 -16 -3 -19 -11 -11 -8 8 -7 17 3
32 15 25 31 27 49 5z m129 -39 c10 -19 10 -28 1 -39 -19 -22 -48 -25 -66 -6
-13 14 -14 22 -4 44 16 34 51 35 69 1z m1897 -37 c-3 -7 -5 -2 -5 12 0 14 2
19 5 13 2 -7 2 -19 0 -25z m-37 -13 c0 -3 -15 -14 -32 -25 -18 -11 -26 -20
-18 -20 21 0 1 -15 -52 -38 -69 -30 -59 -9 20 43 64 42 82 51 82 40z m-618
-35 c3 -16 1 -30 -4 -30 -4 0 -8 14 -8 30 0 17 2 30 4 30 2 0 6 -13 8 -30z
m298 5 c-7 -8 -18 -15 -24 -15 -6 0 -2 7 8 15 25 19 32 19 16 0z m-1990 -26
c0 -10 -4 -19 -10 -19 -5 0 -9 11 -8 24 3 28 18 24 18 -5z m437 -15 c-3 -3
-12 -4 -19 -1 -8 3 -5 6 6 6 11 1 17 -2 13 -5z m1882 -252 c1 -112 -2 -152
-10 -146 -6 3 -14 2 -18 -4 -3 -6 -29 -14 -58 -18 -44 -5 -52 -4 -61 13 -15
27 -22 300 -8 329 6 13 15 24 21 24 25 0 95 37 95 50 0 8 9 -10 20 -40 15 -44
19 -85 19 -208z m-2362 166 c-2 -13 -4 -5 -4 17 -1 22 1 32 4 23 2 -10 2 -28
0 -40z m1637 -10 c3 -14 14 -29 24 -31 10 -3 6 -5 -10 -6 -26 -1 -28 1 -27 42
1 43 3 42 13 -5z m-1727 -40 c-3 -8 -6 -5 -6 6 -1 11 2 17 5 13 3 -3 4 -12 1
-19z m93 -24 c0 -25 -4 -43 -8 -40 -7 4 -4 86 4 86 2 0 4 -21 4 -46z m-63 -61
c-2 -21 -4 -6 -4 32 0 39 2 55 4 38 2 -18 2 -50 0 -70z m123 41 c0 -8 -4 -12
-10 -9 -5 3 -10 13 -10 21 0 8 5 12 10 9 6 -3 10 -13 10 -21z m-506 -29 c-4
-8 -10 -15 -15 -15 -4 0 -6 7 -3 15 4 8 10 15 15 15 4 0 6 -7 3 -15z m136 -7
c-4 -39 0 -48 17 -48 22 0 53 -29 53 -50 0 -23 -29 -48 -62 -54 -15 -2 -31 -7
-36 -10 -7 -4 -70 7 -115 20 -16 5 -17 1 -12 -30 5 -24 3 -36 -4 -36 -6 0 -11
15 -11 34 0 24 -7 38 -22 48 -20 14 -16 14 45 7 37 -5 76 -13 87 -19 11 -6 24
-9 28 -6 4 2 9 37 10 76 2 68 6 90 18 90 3 0 5 -10 4 -22z m-80 -2 c0 -9 -30
-14 -35 -6 -4 6 3 10 14 10 12 0 21 -2 21 -4z m392 -40 c2 -19 0 -32 -4 -30
-8 5 -12 64 -4 64 2 0 6 -15 8 -34z m34 -13 c-10 -10 -19 5 -10 18 6 11 8 11
12 0 2 -7 1 -15 -2 -18z m-481 8 c3 -5 1 -12 -4 -15 -5 -3 -11 1 -15 9 -6 16
9 21 19 6z m526 -78 c13 -17 13 -17 -6 -3 -11 8 -22 16 -24 17 -2 2 0 3 6 3 6
0 17 -8 24 -17z m-191 -46 c15 -9 20 -23 20 -54 0 -24 -4 -43 -10 -43 -5 0
-10 20 -10 44 0 41 -2 44 -32 49 -18 3 -40 8 -49 12 -14 5 -18 -2 -20 -44 l-4
-51 43 -6 c23 -3 45 -11 49 -17 9 -14 -73 -2 -92 13 -18 15 -20 91 -2 109 14
14 76 8 107 -12z m-180 -31 c0 -38 -16 -56 -51 -57 -37 -1 -86 8 -106 21 -18
11 17 9 105 -6 32 -6 32 -6 32 35 0 22 5 41 10 41 6 0 10 -15 10 -34z m-85
-106 c-3 -5 -14 -10 -23 -10 -15 0 -15 2 -2 10 20 13 33 13 25 0z m-54 -90
l-9 -45 -1 42 c-1 44 11 91 16 63 2 -8 -1 -35 -6 -60z m2836 38 c-3 -8 -6 -5
-6 6 -1 11 2 17 5 13 3 -3 4 -12 1 -19z m-2890 -40 c-3 -7 -5 -2 -5 12 0 14 2
19 5 13 2 -7 2 -19 0 -25z m2633 -8 c0 -5 -5 -10 -11 -10 -5 0 -7 5 -4 10 3 6
8 10 11 10 2 0 4 -4 4 -10z m100 -5 c7 -8 8 -15 2 -15 -5 0 -15 7 -22 15 -7 8
-8 15 -2 15 5 0 15 -7 22 -15z m-2525 -55 c-3 -5 -10 -10 -16 -10 -5 0 -9 5
-9 10 0 6 7 10 16 10 8 0 12 -4 9 -10z m143 -49 c10 -5 27 -25 37 -45 16 -29
17 -37 5 -51 -29 -35 -45 -35 -98 1 -50 33 -66 64 -41 79 6 4 8 12 6 19 -6 14
63 12 91 -3z m-167 -34 c-10 -9 -11 -8 -5 6 3 10 9 15 12 12 3 -3 0 -11 -7
-18z m2526 -13 c-3 -3 -12 -4 -19 -1 -8 3 -5 6 6 6 11 1 17 -2 13 -5z m-2239
-26 c15 -15 16 -38 2 -38 -5 0 -10 6 -10 14 0 20 -19 31 -33 17 -7 -7 -6 -16
6 -29 23 -25 21 -35 -3 -22 -19 10 -27 49 -13 63 10 11 38 8 51 -5z"/>
<path d="M263 1154 c-3 -8 -1 -20 5 -26 13 -13 269 -119 303 -125 31 -6 47 13
28 32 -15 15 -298 135 -318 135 -6 0 -14 -7 -18 -16z"/>
<path d="M2538 1312 c-20 -20 -24 -32 -17 -42 7 -12 11 -12 17 -2 5 7 15 10
23 7 11 -4 15 3 17 30 3 42 -4 43 -40 7z"/>
<path d="M2467 1293 c-13 -12 -7 -23 13 -23 11 0 20 7 20 15 0 15 -21 21 -33
8z"/>
<path d="M984 1005 c-9 -23 4 -47 23 -43 26 5 28 35 3 48 -16 9 -21 8 -26 -5z"/>
<path d="M2815 820 l-50 -27 4 -99 c2 -54 4 -124 4 -154 -1 -30 4 -58 9 -61 5
-4 29 -1 51 6 l42 12 1 114 c0 63 -2 141 -5 175 l-6 61 -50 -27z m15 -62 c0
-18 -2 -20 -9 -8 -6 8 -7 18 -5 22 9 14 14 9 14 -14z m12 -120 c-9 -21 -24 -5
-20 22 3 22 1 30 -11 30 -11 0 -10 3 5 14 18 14 19 12 24 -22 3 -20 4 -40 2
-44z m8 -28 c0 -5 -4 -10 -10 -10 -5 0 -10 5 -10 10 0 6 5 10 10 10 6 0 10 -4
10 -10z"/>
<path d="M247 593 c-11 -10 -8 -41 4 -49 6 -3 18 1 27 9 13 13 13 19 2 31 -14
17 -23 20 -33 9z"/>
<path d="M370 142 c0 -5 9 -17 20 -27 16 -14 17 -21 8 -32 -14 -18 4 -38 26
-30 22 9 20 33 -5 68 -19 27 -49 40 -49 21z"/>
<path d="M336 124 c-7 -19 1 -34 19 -34 21 0 28 19 15 35 -16 19 -26 19 -34
-1z"/>
<path d="M2791 2119 l2 -121 46 7 c25 4 46 8 47 8 0 1 14 22 31 47 29 42 30
49 24 110 l-6 65 -73 3 -72 3 1 -122z m99 96 c0 -8 -9 -15 -20 -15 -11 0 -20
7 -20 15 0 8 9 15 20 15 11 0 20 -7 20 -15z m5 -65 c7 -11 -23 -85 -31 -77 -4
3 -1 20 4 37 7 18 7 28 2 25 -12 -7 -32 3 -26 14 7 10 45 11 51 1z"/>
<path d="M2958 2190 c-5 -73 21 -60 35 18 6 27 4 32 -12 32 -16 0 -20 -9 -23
-50z"/>
<path d="M2560 2075 c-9 -11 -11 -39 -7 -103 4 -48 7 -151 7 -229 0 -135 1
-143 20 -143 35 0 39 28 33 241 -7 239 -16 279 -53 234z"/>
<path d="M1391 2063 c-1 -7 -8 -10 -16 -7 -8 4 -15 1 -15 -5 0 -6 5 -11 12
-11 6 0 3 -6 -8 -14 -28 -21 -12 -29 22 -11 26 13 30 13 47 -3 24 -25 13 -56
-13 -39 -14 8 -16 13 -7 19 8 5 7 8 -5 8 -24 0 -48 -11 -48 -22 0 -6 7 -8 15
-4 8 3 15 1 15 -4 0 -5 6 -7 14 -4 9 3 21 -5 31 -20 10 -14 22 -26 28 -26 5 0
2 9 -7 19 -11 13 -14 21 -7 26 6 3 15 -4 20 -17 7 -17 4 -28 -10 -43 -13 -14
-15 -25 -9 -35 6 -8 8 -28 5 -45 l-6 -30 16 25 16 25 -7 -25 c-6 -22 -5 -23
10 -11 15 12 15 16 -4 46 -22 35 -18 45 15 45 28 0 61 -36 57 -62 -2 -11 0
-18 5 -15 4 2 16 -3 26 -13 17 -17 17 -18 0 -35 -9 -10 -18 -24 -19 -32 -3
-20 44 -8 73 19 17 16 28 18 55 13 46 -10 50 -13 37 -37 -11 -21 -12 -21 -25
-3 -8 10 -17 16 -20 12 -4 -4 -13 1 -21 11 -13 15 -13 15 -4 -5 6 -11 24 -27
40 -34 16 -7 27 -17 24 -22 -2 -4 -11 -3 -19 4 -9 7 -14 8 -14 1 0 -6 4 -13 9
-16 5 -3 7 -16 3 -28 -3 -14 -2 -19 6 -14 7 4 12 13 12 19 0 7 9 18 19 24 17
11 23 9 40 -15 11 -16 18 -37 16 -48 -2 -10 -4 -37 -4 -58 -1 -22 -4 -37 -7
-34 -5 5 -7 14 -13 48 -1 3 -6 -2 -11 -10 -8 -13 -10 -12 -10 3 0 10 -5 15
-10 12 -6 -4 -8 -11 -5 -16 4 -5 1 -9 -6 -9 -8 0 -8 -4 -1 -12 9 -11 16 -63
13 -93 -1 -6 -40 -10 -99 -9 -123 2 -132 2 -132 12 0 4 35 7 77 6 43 0 83 1
89 3 13 5 14 34 2 50 -6 7 -3 21 7 37 11 17 13 26 6 26 -7 0 -9 5 -6 10 9 14
-29 12 -44 -2 -11 -11 -11 -9 0 8 12 22 24 25 45 11 12 -7 24 1 24 15 0 5 -4
7 -9 4 -5 -3 -14 1 -21 9 -18 22 -23 19 -44 -20 -19 -34 -19 -35 -34 -14 -8
11 -11 23 -8 26 3 3 0 13 -7 21 -10 13 -8 14 13 7 14 -4 28 -12 31 -17 4 -6
11 5 18 23 14 39 14 42 1 34 -5 -3 -10 1 -10 9 0 18 16 21 25 6 4 -6 11 -7 17
-4 5 3 -1 12 -14 19 -20 11 -25 10 -40 -6 -9 -11 -21 -19 -28 -19 -6 0 -8 -5
-5 -10 4 -6 16 -8 27 -4 13 4 19 2 16 -6 -2 -6 -7 -11 -11 -11 -4 1 -16 1 -26
1 -12 0 -21 9 -25 25 -4 14 -21 35 -39 46 -17 12 -24 19 -15 16 9 -3 19 1 22
9 3 9 1 12 -4 9 -6 -3 -10 -1 -10 4 0 6 7 11 15 11 8 0 15 4 15 9 0 5 -7 11
-15 15 -8 3 -15 14 -15 25 0 11 -10 27 -22 35 -32 23 -45 20 -16 -4 31 -24 40
-63 21 -90 -13 -19 -46 -22 -72 -6 -5 3 -14 -1 -21 -8 -6 -8 -20 -13 -31 -11
-10 2 -19 -1 -19 -7 0 -7 -6 -6 -15 2 -10 9 -15 9 -15 1 0 -6 -5 -11 -11 -11
-5 0 -7 5 -3 11 4 8 1 8 -13 1 -10 -6 -33 -9 -51 -8 -18 1 -35 -1 -37 -4 -2
-3 -22 -7 -45 -8 -61 -4 -79 -19 -115 -97 -28 -62 -31 -77 -27 -138 l4 -67
-32 -6 c-36 -8 -48 -28 -32 -55 7 -10 12 -27 12 -38 0 -11 11 -33 25 -49 14
-17 25 -40 25 -53 0 -40 48 -198 81 -268 17 -36 32 -81 34 -99 3 -29 36 -71
58 -72 13 0 8 8 -24 40 -38 38 -32 50 9 20 18 -13 35 -19 43 -15 8 6 10 4 3
-6 -13 -21 -15 -44 -3 -32 21 21 57 2 74 -39 24 -62 30 -153 10 -180 -15 -23
-15 -23 -9 7 3 17 -1 49 -9 72 -13 37 -13 41 2 35 13 -5 14 -3 5 9 -7 8 -15
29 -19 47 -5 22 -12 32 -26 32 -16 0 -159 -113 -159 -126 0 -13 42 -85 47 -80
3 3 -4 21 -15 40 l-21 35 62 56 c34 30 64 55 67 55 3 0 15 -35 26 -78 16 -58
20 -90 15 -129 -4 -29 -4 -50 1 -47 4 3 8 1 8 -4 0 -6 -16 -13 -35 -16 -37 -7
-41 -15 -24 -48 9 -16 8 -19 -3 -16 -16 6 -24 68 -8 68 6 0 8 5 4 12 -4 6 -3
8 3 5 14 -9 43 36 43 65 0 19 -27 104 -37 117 -5 7 -33 -21 -28 -28 2 -4 -2
-8 -10 -8 -20 0 -20 1 16 42 17 19 27 35 21 35 -5 0 -27 -20 -48 -44 -21 -25
-42 -42 -46 -40 -14 9 -9 -4 23 -68 26 -51 32 -76 33 -132 1 -67 3 -71 27 -80
34 -12 68 -1 51 16 -18 18 -15 25 14 31 22 4 25 2 21 -17 -15 -62 -42 -153
-77 -255 -44 -126 -47 -138 -25 -138 18 0 38 66 29 93 -5 16 -4 17 6 4 9 -12
10 -10 5 13 -4 21 -3 27 6 21 9 -5 10 -1 7 14 -4 12 -2 20 2 17 8 -5 50 116
50 144 0 7 5 9 10 6 7 -4 9 3 5 22 -5 19 -4 24 3 15 7 -11 11 -8 15 10 4 14
13 25 20 25 9 0 3 -21 -20 -67 -34 -68 -96 -240 -89 -247 2 -3 23 28 46 69 71
123 167 271 200 308 38 42 31 28 -30 -65 -26 -38 -75 -117 -109 -175 -35 -58
-77 -126 -94 -153 -16 -26 -28 -50 -24 -53 3 -3 17 15 32 41 15 25 29 44 31
42 6 -5 -20 -71 -31 -80 -5 -4 46 -6 115 -5 l125 3 36 146 c55 222 160 452
247 542 55 57 25 44 -50 -22 -95 -83 -255 -176 -340 -197 l-28 -6 0 73 c0 55
-4 77 -17 92 -17 18 -17 20 7 38 14 10 30 23 37 29 7 5 20 10 29 10 18 0 82
44 192 133 68 55 71 60 58 79 -8 12 -12 34 -10 55 3 20 0 40 -5 47 -11 14 20
138 37 144 6 2 12 -3 12 -12 0 -9 -3 -16 -7 -16 -5 0 -9 -50 -10 -111 -3 -97
-1 -110 13 -107 14 3 16 18 15 109 l-2 106 36 38 c33 35 65 113 65 157 0 33
-28 88 -45 88 -12 0 -15 7 -10 33 12 72 26 163 26 179 0 19 19 36 19 18 0 -6
4 -9 9 -6 11 7 -16 66 -30 66 -5 0 -7 -12 -4 -27 6 -26 5 -27 -9 -10 -8 11
-12 25 -9 33 4 12 0 14 -23 8 -22 -5 -26 -4 -18 5 17 18 5 59 -20 67 -11 4
-27 14 -34 23 -12 15 -13 14 -8 -1 4 -15 -1 -18 -35 -18 -36 0 -39 2 -30 19 9
17 66 37 99 34 6 0 12 3 12 8 0 11 -16 20 -24 12 -6 -6 -46 -13 -76 -12 -60 0
-63 1 -49 10 8 5 29 9 47 9 30 0 31 2 20 20 -16 25 -29 25 -60 0 -19 -14 -28
-16 -36 -8 -7 7 -12 16 -12 20 0 13 28 9 33 -4 3 -7 6 -3 6 10 1 15 -5 22 -18
22 -11 0 -23 -4 -26 -10 -11 -17 -42 -11 -48 10 -5 21 7 28 18 10 10 -16 22
-12 28 10 3 13 0 20 -8 20 -7 0 -16 6 -19 13 -3 9 -9 7 -19 -5 -8 -10 -17 -15
-20 -11 -12 11 -8 23 8 23 8 0 15 5 15 10 0 18 16 11 51 -23 56 -54 69 -62 69
-44 0 8 -12 18 -26 21 -15 4 -24 10 -20 13 10 10 56 10 56 -1 0 -5 8 -15 18
-22 16 -13 16 -14 0 -8 -10 3 -18 1 -18 -5 0 -6 9 -11 21 -11 24 0 59 -29 37
-31 -7 -1 2 -4 21 -8 46 -8 61 -33 37 -60 -19 -21 -19 -21 5 -21 19 0 21 2 9
10 -9 6 -10 10 -3 10 19 0 36 -39 24 -54 -8 -9 -2 -17 19 -30 17 -9 35 -14 40
-11 6 3 10 1 10 -4 0 -6 5 -11 12 -11 7 0 -2 15 -18 33 -37 39 -67 87 -56 87
15 0 42 -36 35 -46 -4 -5 -1 -4 6 3 12 10 12 15 0 29 -7 9 -23 20 -36 25 -23
9 -32 29 -12 29 5 0 7 5 4 10 -3 6 -17 10 -31 10 -13 0 -24 5 -24 10 0 6 -7
10 -15 10 -8 0 -15 5 -15 10 0 6 9 10 20 10 11 0 20 5 20 11 0 7 -11 8 -30 4
-32 -7 -81 17 -60 30 6 4 17 2 25 -5 8 -7 15 -7 19 -1 11 17 -24 28 -76 23
-48 -5 -75 8 -62 30 9 14 24 8 18 -7 -4 -8 -1 -15 5 -15 17 0 13 30 -4 36 -8
4 -22 1 -30 -6 -13 -10 -15 -9 -16 11 l0 24 -9 -22 c-5 -13 -14 -23 -19 -23
-5 0 -17 -3 -26 -7 -14 -5 -16 -2 -11 15 6 17 4 21 -8 16 -11 -4 -15 -1 -13 7
2 8 2 11 0 7 -7 -12 -31 -9 -36 5 -4 9 -6 9 -6 0z m229 -231 c0 -14 -11 -21
-26 -15 -21 8 -17 23 6 23 11 0 20 -4 20 -8z m-4 -67 c-21 -16 -32 -13 -21 4
3 6 14 11 23 11 15 -1 15 -2 -2 -15z m-486 -137 c-7 -35 -14 -74 -17 -87 -5
-30 -21 -61 -32 -61 -8 0 2 102 14 135 17 47 37 86 42 81 3 -3 0 -34 -7 -68z
m517 -80 c-3 -8 -6 -5 -6 6 -1 11 2 17 5 13 3 -3 4 -12 1 -19z m-17 2 c0 -5
-2 -10 -4 -10 -3 0 -8 5 -11 10 -3 6 -1 10 4 10 6 0 11 -4 11 -10z m-180 -74
c37 -6 37 -7 10 -16 -24 -8 -24 -8 7 -9 30 -1 63 -22 63 -41 0 -4 8 -7 18 -6
9 2 17 8 17 14 0 17 18 16 25 -1 4 -12 14 -12 65 -1 59 12 105 10 105 -6 0 -4
-13 -10 -29 -13 -20 -4 -31 -14 -35 -32 -4 -14 -11 -23 -15 -20 -5 3 -7 13 -4
24 6 24 -19 33 -54 20 -14 -5 -35 -8 -47 -7 -14 2 -22 -4 -27 -22 -6 -23 -7
-23 -8 -3 -1 19 -6 21 -40 18 -22 -2 -45 -6 -51 -10 -6 -4 -19 0 -29 9 -17 15
-19 15 -24 1 -7 -16 -37 -21 -37 -6 0 16 60 34 99 28 34 -4 38 -2 37 17 -1 18
-9 22 -61 28 -33 4 -80 5 -104 2 -30 -4 -42 -2 -39 6 2 6 8 12 13 12 6 0 26 6
45 13 19 7 44 11 55 9 11 -2 31 -6 45 -8z m-330 -7 c0 -5 4 -8 8 -5 14 8 93
-16 99 -30 3 -8 13 -14 23 -14 32 0 31 -18 0 -22 -23 -4 -30 -1 -30 12 0 30
-100 41 -127 15 -22 -23 -12 -27 38 -16 81 19 83 18 76 -41 -4 -28 -13 -59
-22 -67 -13 -13 -14 -12 -5 18 9 32 8 33 -16 27 -17 -5 -26 -2 -30 9 -4 8 -12
15 -20 15 -22 0 -16 -15 12 -31 l26 -14 -22 -5 c-24 -6 -49 -35 -38 -45 3 -4
19 0 35 9 26 13 30 13 30 0 0 -16 -51 -32 -84 -26 -22 4 -33 22 -14 22 5 0 14
14 21 31 10 24 10 33 1 38 -21 13 -25 78 -7 106 16 25 46 34 46 14z m258 -34
c-3 -3 -18 -8 -34 -11 -37 -7 -46 -13 -40 -30 3 -7 1 -16 -4 -19 -6 -4 -10
-11 -10 -16 0 -6 4 -8 9 -4 11 6 21 -6 26 -36 7 -33 24 -47 68 -58 l42 -9 -35
-1 -35 -2 27 -23 c15 -13 24 -27 21 -30 -4 -3 -2 -6 3 -6 5 0 11 -10 11 -22 2
-20 -1 -18 -19 10 l-21 33 -11 -23 c-9 -17 -24 -25 -61 -30 -74 -11 -140 -5
-141 12 -1 26 16 49 31 44 8 -4 12 -10 9 -15 -3 -5 6 -13 21 -19 21 -8 29 -6
46 11 13 13 27 18 37 14 40 -17 52 -17 52 -2 0 9 -7 22 -15 30 -8 8 -12 17 -9
20 4 3 -6 18 -20 34 -17 18 -24 34 -20 48 4 16 3 17 -5 5 -8 -12 -12 -9 -20
13 -14 37 -37 34 -45 -6 -3 -18 -21 -56 -40 -84 -19 -28 -37 -57 -40 -65 -3
-7 -4 -1 -2 15 4 30 -2 32 -39 15 -28 -13 -30 -22 -11 -57 7 -13 11 -33 8 -44
-3 -10 -1 -22 5 -26 5 -3 7 -17 3 -31 -5 -22 -8 -18 -19 25 -7 28 -17 61 -21
75 -24 72 -23 75 28 76 39 2 51 7 79 38 22 24 33 46 33 66 0 24 5 31 26 36 17
4 29 2 35 -7 6 -10 9 -4 9 18 0 27 4 32 28 36 45 7 66 7 60 2z m47 -15 c-3 -5
-14 -10 -23 -9 -14 0 -13 2 3 9 27 11 27 11 20 0z m-390 -10 c-3 -5 -11 -10
-16 -10 -6 0 -7 5 -4 10 3 6 11 10 16 10 6 0 7 -4 4 -10z m452 4 c-3 -3 -12
-4 -19 -1 -8 3 -5 6 6 6 11 1 17 -2 13 -5z m-119 -21 c-6 -7 -14 -13 -18 -13
-4 0 -10 6 -13 13 -3 7 4 12 18 12 18 0 21 -3 13 -12z m440 -5 c7 -7 11 -32
11 -57 -1 -26 -4 -37 -6 -26 -14 55 -23 68 -38 55 -23 -19 -31 -3 -10 20 21
23 27 24 43 8z m-759 -35 c0 -21 -4 -47 -9 -58 -7 -19 -9 -18 -19 8 -16 41
-14 68 4 61 8 -4 15 -1 15 4 0 6 -8 13 -17 15 -14 4 -12 5 5 6 19 1 22 -4 21
-36z m428 -9 c0 -12 -9 -15 -39 -12 -21 2 -38 1 -38 -3 0 -10 49 -29 78 -30
24 0 25 -1 7 -9 -28 -12 -67 -12 -60 0 3 6 0 10 -7 10 -7 0 -22 12 -32 27
l-19 26 39 -6 c21 -4 46 -2 54 3 8 5 15 10 16 10 0 0 1 -7 1 -16z m260 -8 c-4
-9 0 -12 11 -10 31 8 47 -14 43 -56 -1 -11 -7 -8 -21 10 -19 25 -20 25 -20 3
0 -12 -5 -25 -10 -28 -6 -4 -8 -11 -5 -16 4 -5 -1 -9 -10 -9 -14 0 -14 3 -2
28 9 17 11 35 6 47 -11 29 -11 45 2 45 6 0 9 -6 6 -14z m-37 -58 c0 -16 -5
-28 -11 -28 -5 0 -7 5 -4 10 3 6 0 10 -7 11 -8 0 -9 2 -2 5 6 3 9 17 7 32 -4
21 -2 24 6 12 6 -8 11 -27 11 -42z m-182 -23 c-2 -3 -20 -2 -39 2 l-34 7 30 6
c28 6 55 -3 43 -15z m36 0 c-4 -8 -11 -12 -16 -9 -6 4 -5 10 3 15 19 12 19 11
13 -6z m246 -25 c-6 -11 -17 -20 -25 -20 -7 0 -17 -9 -20 -21 -5 -15 -10 -18
-18 -10 -12 12 8 41 28 41 7 0 18 7 25 15 18 21 23 19 10 -5z m-100 -17 c0
-16 -9 -52 -20 -80 -11 -29 -22 -73 -24 -98 -6 -59 -31 -99 -116 -181 -39 -37
-70 -73 -70 -79 0 -6 -7 -20 -15 -31 -13 -18 -14 -18 -6 6 20 66 35 90 71 114
22 14 57 48 79 76 33 42 38 55 34 85 -3 26 3 52 21 91 30 64 33 82 9 63 -15
-13 -15 -12 -3 8 8 12 18 19 24 16 5 -4 7 3 4 15 -4 12 -2 22 3 22 5 0 9 -12
9 -27z m-55 -11 c-3 -3 -11 0 -18 7 -9 10 -8 11 6 5 10 -3 15 -9 12 -12z
m-450 -103 c-19 -17 -32 -35 -29 -41 3 -5 15 0 26 12 13 14 26 19 37 14 9 -3
30 -6 48 -5 18 1 49 -5 69 -14 45 -19 48 -19 40 0 -5 14 -1 13 24 -1 29 -18
45 -42 35 -52 -3 -3 -11 0 -17 6 -8 8 -53 12 -134 12 l-122 0 -7 -31 c-8 -37
-20 -28 -30 21 -4 26 -3 31 4 20 8 -12 11 -8 11 16 0 23 9 38 32 57 43 37 56
23 13 -14z m82 5 c-3 -3 -12 -4 -19 -1 -8 3 -5 6 6 6 11 1 17 -2 13 -5z m53
-104 c-8 -5 -19 -10 -25 -10 -5 0 -3 5 5 10 8 5 20 10 25 10 6 0 3 -5 -5 -10z
m60 0 c0 -5 -3 -10 -7 -10 -5 0 -19 -9 -33 -20 -14 -11 -18 -18 -9 -14 10 3
20 -1 25 -8 4 -7 4 -10 0 -7 -4 4 -29 1 -57 -6 -27 -7 -49 -9 -49 -4 0 5 -15
15 -34 23 -33 14 -53 33 -43 42 3 3 18 -1 34 -9 33 -17 92 -14 131 7 32 18 42
19 42 6z m77 3 c-4 -3 -2 -12 3 -18 7 -9 6 -14 -3 -18 -9 -3 -13 2 -11 16 3
28 3 27 11 27 3 0 3 -3 0 -7z m-63 -38 c-4 -8 -11 -12 -16 -9 -6 4 -5 10 3 15
19 12 19 11 13 -6z m-164 -35 c0 -5 -7 -7 -15 -4 -8 4 -15 8 -15 10 0 2 7 4
15 4 8 0 15 -4 15 -10z m-15 -79 c-6 -5 -25 10 -25 20 0 5 6 4 14 -3 8 -7 12
-15 11 -17z m115 -6 c-11 -13 -10 -14 4 -9 9 3 16 1 16 -5 0 -7 -19 -10 -47
-10 -28 1 -37 4 -21 6 14 2 32 11 38 19 7 8 15 14 17 14 3 0 0 -7 -7 -15z m97
-29 c0 -8 -6 -12 -15 -9 -11 5 -11 7 0 14 7 5 13 9 14 9 0 0 1 -6 1 -14z m198
-274 c-28 -26 -70 -78 -94 -115 -24 -37 -46 -66 -48 -63 -12 12 87 152 132
187 67 52 70 49 10 -9z m-274 -51 c-12 -12 -21 -30 -21 -41 0 -13 -5 -18 -15
-14 -11 5 -13 13 -8 28 4 11 6 37 6 56 -2 34 -1 34 8 8 13 -33 38 -27 40 11
l2 26 4 -27 c3 -18 -3 -34 -16 -47z m127 -43 c-25 -29 -62 -78 -83 -108 -47
-67 -62 -83 -45 -50 29 56 151 210 168 210 2 0 -16 -24 -40 -52z m-132 -34
c-8 -27 -15 -43 -15 -35 -1 18 21 92 26 87 2 -2 -2 -26 -11 -52z m-61 36 c-3
-5 -10 -10 -16 -10 -5 0 -9 5 -9 10 0 6 7 10 16 10 8 0 12 -4 9 -10z m95 -29
c0 -6 -4 -13 -10 -16 -5 -3 -10 1 -10 9 0 9 5 16 10 16 6 0 10 -4 10 -9z m103
-187 c-14 -38 -63 -118 -63 -104 0 8 14 39 30 68 30 51 46 68 33 36z m-262
-185 c-5 -13 -10 -19 -10 -12 -1 15 10 45 15 40 3 -2 0 -15 -5 -28z"/>
<path d="M1106 1392 c-2 -4 3 -8 12 -8 9 0 33 -4 52 -8 33 -6 34 -6 16 9 -21
16 -71 21 -80 7z"/>
<path d="M1245 2030 c-10 -11 -15 -23 -12 -27 4 -4 13 1 20 10 11 16 15 15 47
-14 19 -17 27 -26 18 -19 -12 8 -18 9 -18 2 0 -6 -9 -13 -20 -17 -19 -6 -19
-8 -4 -36 l15 -30 26 21 c18 14 30 17 37 10 5 -5 18 -10 28 -10 9 0 22 -9 28
-20 9 -17 8 -20 -11 -20 -12 0 -30 7 -40 16 -10 9 -25 14 -34 11 -22 -9 -19
-26 4 -20 28 7 33 -23 12 -63 -14 -26 -20 -31 -25 -18 -8 22 -8 26 4 19 6 -3
10 1 10 10 0 9 -5 15 -12 13 -6 -2 -21 6 -34 19 -24 24 -54 31 -54 12 0 -6 7
-9 15 -6 8 4 17 2 20 -3 4 -6 0 -10 -7 -10 -8 0 -14 -10 -15 -22 -1 -36 17
-89 29 -82 7 4 6 9 -2 14 -7 4 -9 13 -5 20 6 9 9 9 16 -1 4 -8 19 -15 31 -16
19 -1 27 7 43 45 10 25 20 41 23 34 2 -7 8 -12 13 -12 4 0 6 7 3 15 -4 10 0
15 10 15 25 0 29 -23 11 -65 -20 -48 -13 -57 9 -11 18 39 21 82 5 92 -6 3 -8
16 -5 29 5 20 1 24 -28 29 -21 4 -41 17 -51 32 -16 24 -16 27 2 47 16 18 16
20 1 14 -9 -3 -19 -3 -21 1 -2 4 -2 2 -1 -5 5 -22 -13 -23 -31 -3 -23 25 -28
25 -50 0z m78 -90 c-15 -9 -29 -16 -31 -15 -8 6 12 34 26 38 31 7 34 -5 5 -23z
m-37 -122 c-23 -13 -40 0 -25 18 9 11 15 12 26 2 12 -10 12 -13 -1 -20z"/>
<path d="M1136 2013 c-3 -3 -6 -17 -6 -30 0 -21 4 -24 28 -21 15 2 26 8 24 16
-2 10 2 10 17 0 11 -7 17 -18 13 -27 -3 -9 -2 -13 2 -9 5 4 17 -2 29 -12 11
-11 23 -17 26 -14 3 3 -5 14 -18 25 -13 11 -22 21 -20 23 2 2 18 11 34 20 l30
17 -43 -7 c-26 -3 -48 -2 -56 6 -10 7 -16 8 -21 0 -3 -5 -11 -10 -16 -10 -6 0
-8 4 -4 9 6 11 -9 23 -19 14z"/>
<path d="M1083 1953 c-22 -4 -37 -34 -32 -64 1 -8 -1 -22 -5 -31 -11 -24 -48
-5 -39 20 5 14 4 15 -8 4 -10 -10 -11 -17 -2 -31 10 -16 7 -23 -18 -47 -32
-31 -37 -64 -13 -89 10 -9 14 -26 11 -41 -2 -13 -1 -27 3 -29 4 -3 10 14 13
36 3 23 14 51 24 62 23 27 20 69 -5 60 -15 -5 -15 -4 -2 10 8 9 26 18 40 21
20 5 29 0 47 -28 21 -34 21 -34 1 -31 -15 3 -17 1 -10 -8 8 -9 2 -12 -21 -12
-28 0 -32 -4 -35 -28 -2 -15 -8 -25 -13 -22 -5 4 -9 2 -9 -4 0 -5 5 -13 10
-16 6 -4 9 -19 7 -33 -2 -15 -1 -36 3 -47 6 -16 8 -13 14 18 4 21 2 45 -4 57
-7 13 -7 20 0 20 5 0 10 -5 10 -11 0 -5 5 -7 10 -4 15 9 12 25 -5 25 -8 0 -15
4 -15 9 0 5 7 14 15 21 10 9 15 9 15 1 0 -6 -5 -11 -12 -11 -6 0 -8 -3 -5 -6
4 -4 12 -2 19 4 7 6 18 11 23 11 6 1 26 4 45 8 19 4 42 7 50 8 8 1 23 2 33 3
14 2 17 7 11 24 -12 38 -45 77 -61 71 -11 -4 -14 0 -11 18 3 24 7 26 61 28 17
1 26 5 21 12 -3 6 -16 8 -28 5 -25 -6 -65 19 -44 28 7 3 3 3 -9 1 -12 -3 -24
-1 -28 5 -6 10 -13 11 -52 3z m69 -28 c14 -6 15 -10 5 -26 -13 -22 -29 -26
-21 -6 3 8 -2 20 -11 27 -13 11 -14 10 -9 -5 5 -12 0 -24 -17 -37 -24 -19 -24
-19 -2 -13 18 5 22 3 17 -9 -3 -8 0 -25 7 -38 11 -21 11 -22 -4 -9 -10 7 -17
20 -17 27 0 8 -3 13 -7 13 -5 -1 -16 -1 -27 0 -15 1 -16 4 -6 16 7 8 9 15 5
15 -4 0 3 9 16 20 13 10 18 19 12 20 -7 0 -13 -5 -13 -12 0 -9 -3 -9 -11 -1
-28 28 30 40 83 18z m27 -91 c4 3 12 -4 19 -15 7 -10 10 -19 6 -19 -11 0 -49
23 -56 34 -14 20 -8 28 8 12 8 -9 19 -14 23 -12z m-168 -48 c14 8 11 -2 -10
-42 -18 -34 -20 -34 -30 -16 -6 12 -11 26 -11 33 0 15 34 41 38 28 2 -5 8 -7
13 -3z"/>
<path d="M1210 1861 c0 -6 4 -13 10 -16 6 -3 7 1 4 9 -7 18 -14 21 -14 7z"/>
<path d="M680 1845 c-11 -13 -10 -19 5 -35 17 -19 20 -19 34 -5 12 11 13 20 5
32 -15 24 -29 26 -44 8z"/>
<path d="M1363 1813 c-14 -28 9 -39 30 -15 27 32 28 40 3 38 -13 0 -27 -10
-33 -23z"/>
<path d="M2631 1804 c0 -11 3 -14 6 -6 3 7 2 16 -1 19 -3 4 -6 -2 -5 -13z"/>
<path d="M1040 1798 c0 -18 18 -34 28 -24 3 4 -2 14 -11 23 -16 16 -17 16 -17
1z"/>
<path d="M1670 1671 c0 -29 15 -33 16 -5 1 13 -2 24 -7 24 -5 0 -9 -9 -9 -19z"/>
<path d="M1740 1670 c0 -6 7 -13 15 -16 8 -4 15 -16 14 -28 0 -20 -1 -20 -9
-1 -7 18 -8 19 -15 3 -4 -10 -11 -16 -16 -13 -4 3 -13 -4 -19 -15 -6 -11 -8
-20 -4 -20 3 0 -1 -12 -11 -26 -15 -24 -15 -27 -1 -43 10 -11 14 -26 10 -37
-5 -15 -4 -16 4 -5 6 8 9 34 7 58 -3 47 14 76 40 67 19 -8 30 38 15 65 -11 22
-30 28 -30 11z"/>
<path d="M1720 1640 c0 -5 5 -10 10 -10 6 0 10 5 10 10 0 6 -4 10 -10 10 -5 0
-10 -4 -10 -10z"/>
<path d="M1606 1615 c4 -8 10 -12 15 -9 11 6 2 24 -11 24 -5 0 -7 -7 -4 -15z"/>
<path d="M2141 1136 c1 -63 3 -134 6 -158 5 -42 7 -44 34 -40 16 2 29 0 29 -6
0 -6 -15 -12 -32 -14 -25 -2 -33 -8 -33 -23 0 -13 8 -21 23 -23 48 -7 52 8 52
187 0 180 -3 191 -52 191 l-29 0 2 -114z m52 -123 c-7 -2 -19 -2 -25 0 -7 3
-2 5 12 5 14 0 19 -2 13 -5z"/>
<path d="M2911 1114 c0 -11 3 -14 6 -6 3 7 2 16 -1 19 -3 4 -6 -2 -5 -13z"/>
<path d="M2066 1083 c-3 -4 -4 -77 0 -162 5 -115 10 -158 20 -164 15 -9 19
-37 6 -37 -4 0 -13 5 -18 10 -7 7 -9 0 -6 -22 4 -27 6 -29 12 -14 6 18 7 18
14 -5 l7 -24 11 23 c6 12 17 22 25 22 8 0 11 5 8 10 -4 6 -9 8 -13 6 -4 -2 -7
72 -8 164 0 124 -4 172 -13 184 -14 17 -33 21 -45 9z"/>
<path d="M2397 1064 c-4 -4 -7 -45 -7 -91 0 -82 1 -84 23 -81 21 3 22 7 22 88
0 69 -3 85 -15 88 -9 1 -19 0 -23 -4z"/>
<path d="M1763 973 c9 -2 17 -8 17 -13 0 -30 -357 -300 -396 -300 -7 0 -14 -4
-14 -10 0 -15 9 -13 69 21 31 18 50 25 44 17 -7 -8 -29 -23 -48 -34 -35 -18
-35 -19 -35 -86 0 -38 2 -68 5 -68 3 0 11 15 20 33 27 60 63 118 68 110 2 -4
-4 -21 -14 -38 -10 -16 -28 -47 -39 -68 l-21 -38 28 7 c15 4 28 7 29 8 13 16
106 218 102 222 -3 3 -22 -9 -42 -26 -35 -31 -49 -30 -23 1 21 27 98 82 104
75 3 -3 1 -11 -4 -18 -6 -7 -14 -27 -17 -43 -4 -17 -27 -66 -51 -109 -25 -43
-45 -82 -45 -87 0 -22 33 8 55 50 13 25 38 66 54 91 24 34 31 56 31 91 0 45 2
49 73 112 l74 66 -8 -47 c-4 -26 -8 -53 -8 -60 -1 -6 -13 -22 -27 -35 -25 -21
-101 -157 -88 -157 3 0 19 9 35 21 16 11 29 16 29 11 0 -14 -25 -32 -59 -42
l-31 -9 16 37 c9 20 25 59 35 86 10 27 32 64 49 81 26 27 39 55 25 55 -2 0
-23 -17 -46 -38 -33 -31 -42 -47 -46 -83 -6 -48 -21 -82 -65 -147 -34 -50 -30
-64 10 -36 15 11 39 26 55 33 15 8 60 44 99 79 40 36 74 60 76 54 2 -6 9 -9
16 -6 7 3 29 -11 49 -31 32 -31 37 -42 37 -80 0 -50 11 -58 28 -21 9 19 8 27
-4 36 -8 7 -14 17 -14 22 0 17 80 -48 184 -149 56 -54 106 -98 113 -99 31 -5
213 -147 213 -166 0 -6 -20 8 -45 31 -53 49 -81 61 -139 61 -94 0 -238 -107
-315 -234 -29 -49 -32 -60 -23 -81 10 -22 18 -25 61 -25 29 0 51 5 53 12 3 8
11 9 24 3 33 -15 54 -13 64 6 8 14 4 20 -20 30 -46 21 -56 49 -31 95 12 24 20
32 21 21 0 -14 4 -16 17 -9 12 7 23 3 42 -14 27 -26 27 -32 -14 -126 -6 -16 0
-18 59 -18 56 0 66 3 67 18 0 14 2 14 9 -3 7 -18 8 -16 12 10 l5 30 2 -27 c1
-28 2 -28 67 -28 49 0 63 3 58 13 -5 8 -2 8 9 -2 9 -7 17 -9 17 -3 0 5 -7 15
-15 22 -8 7 -15 9 -15 4 0 -5 -11 11 -25 35 -14 23 -25 47 -25 52 0 5 -15 28
-32 53 -31 40 -67 98 -77 121 -2 6 5 2 17 -8 11 -10 22 -14 23 -9 2 5 40 -48
84 -119 104 -167 102 -165 109 -158 9 9 -162 283 -188 301 -6 4 -3 10 7 14 37
14 166 -108 188 -178 6 -18 15 -43 21 -55 6 -12 8 -35 6 -52 -3 -21 0 -31 9
-31 7 0 13 5 13 12 0 23 -33 143 -46 170 -12 22 -11 27 1 32 8 3 15 15 15 26
0 24 -26 38 -42 22 -7 -7 -28 13 -69 68 -61 80 -172 191 -275 273 -83 65 -214
158 -244 171 -36 16 -46 32 -71 111 -24 82 -34 95 -63 94 -17 -1 -17 -2 -3 -6z
m59 -143 c2 -14 -2 -24 -8 -23 -6 1 -19 -13 -29 -30 l-18 -32 31 29 c27 25 32
27 38 13 3 -10 13 -17 21 -17 8 0 11 -4 8 -10 -3 -5 -18 -7 -34 -4 -23 5 -35
-1 -65 -32 -43 -44 -44 -40 -11 26 13 26 27 67 31 90 6 34 9 39 20 28 7 -7 14
-24 16 -38z m-81 -77 c-23 -43 -60 -92 -61 -80 0 10 68 117 75 117 3 0 -4 -17
-14 -37z m519 -497 c0 -52 -6 -43 -13 18 -3 30 -1 43 4 35 5 -8 9 -32 9 -53z
m-30 40 c0 -3 -4 -8 -10 -11 -5 -3 -10 -1 -10 4 0 6 5 11 10 11 6 0 10 -2 10
-4z m-47 -26 c-3 -11 -7 -20 -9 -20 -2 0 -4 9 -4 20 0 11 4 20 9 20 5 0 7 -9
4 -20z m-33 -14 c0 -13 -9 -34 -20 -47 l-20 -24 10 28 c7 19 6 27 -2 27 -6 0
-3 9 7 20 23 25 25 25 25 -4z m331 -33 c13 -16 12 -17 -3 -4 -17 13 -22 21
-14 21 2 0 10 -8 17 -17z m-196 -83 c-4 -39 -9 -69 -12 -67 -2 3 -1 37 3 76 3
40 9 70 11 67 3 -3 2 -37 -2 -76z m-18 33 c-3 -10 -5 -4 -5 12 0 17 2 24 5 18
2 -7 2 -21 0 -30z m30 -90 c-3 -10 -5 -4 -5 12 0 17 2 24 5 18 2 -7 2 -21 0
-30z m57 -42 c-8 -9 -15 8 -19 45 l-5 39 14 -40 c7 -22 12 -42 10 -44z m-300
30 c10 -11 15 -25 11 -31 -4 -7 -14 -2 -26 14 -31 39 -18 53 15 17z"/>
<path d="M2012 883 c2 -70 6 -88 18 -88 12 0 15 16 15 85 0 73 -2 85 -18 88
-16 3 -18 -4 -15 -85z"/>
<path d="M757 864 c-4 -4 -7 -61 -7 -126 l0 -118 44 0 45 0 6 43 c3 23 5 78 3
122 l-3 80 -40 3 c-23 2 -44 0 -48 -4z"/>
<path d="M2382 858 c3 -7 13 -15 22 -16 12 -3 17 1 14 10 -3 7 -13 15 -22 16
-12 3 -17 -1 -14 -10z"/>
<path d="M2444 826 c-3 -7 -3 -55 -2 -107 l3 -94 88 -1 87 -1 0 29 c0 25 -4
28 -31 28 -17 0 -46 -7 -65 -16 -18 -9 -39 -14 -46 -11 -7 3 -4 6 7 6 11 1 31
12 43 26 21 21 23 29 14 55 -12 32 -4 44 22 34 21 -8 46 13 46 40 0 19 -6 21
-80 23 -59 2 -82 -1 -86 -11z m77 -44 c-6 -2 -21 -12 -33 -23 -22 -18 -22 -20
-5 -33 14 -11 15 -15 3 -25 -11 -9 -15 -5 -20 21 -5 27 -1 37 26 64 26 26 34
29 37 16 2 -9 -2 -18 -8 -20z"/>
<path d="M2318 797 l-38 -32 2 -92 c1 -102 2 -103 62 -78 35 15 36 15 36 -6 0
-35 23 -15 26 24 l3 36 -34 -20 c-19 -12 -40 -19 -47 -17 -6 2 10 14 35 26
l47 22 0 85 0 85 -27 0 c-17 -1 -43 -14 -65 -33z m24 -109 c-9 -9 -12 -4 -11
23 0 32 1 33 11 11 8 -17 8 -26 0 -34z"/>
<path d="M2975 788 c-19 -8 -20 -17 -17 -136 2 -70 8 -131 13 -137 22 -23 29
16 27 147 -3 131 -4 135 -23 126z"/>
<path d="M2010 757 c0 -14 9 -35 20 -48 l20 -24 -3 45 c-2 33 -7 46 -20 48
-12 3 -17 -3 -17 -21z"/>
<path d="M706 762 c-2 -4 -1 -14 4 -21 10 -17 31 -5 23 14 -6 16 -19 20 -27 7z"/>
<path d="M2595 760 c-3 -5 -3 -10 2 -10 4 0 0 -5 -9 -11 -22 -13 -23 -35 -2
-43 24 -9 34 2 32 35 -3 33 -13 46 -23 29z"/>
<path d="M1805 663 c-91 -115 -143 -251 -160 -417 -9 -81 -60 -219 -89 -238
-6 -4 13 -8 42 -8 47 0 53 3 62 26 6 14 10 40 10 57 0 18 7 42 15 54 8 12 26
63 40 115 14 51 41 138 61 193 69 188 75 207 71 218 -4 13 -107 -176 -107
-197 0 -8 -12 -28 -26 -43 -20 -22 -24 -24 -19 -8 15 49 141 266 157 270 17 6
15 35 -3 35 -5 0 -29 -26 -54 -57z m-166 -600 c-7 -10 -15 -20 -16 -22 -2 -2
-3 5 -3 17 0 14 6 22 16 22 14 0 15 -3 3 -17z"/>
<path d="M867 693 c-2 -5 -5 -61 -6 -125 l-2 -118 25 0 c25 0 25 0 28 113 2
61 1 118 -1 125 -3 13 -37 17 -44 5z"/>
<path d="M960 598 c0 -57 3 -113 6 -125 6 -21 8 -21 30 -7 22 15 23 20 21 122
l-2 107 -27 3 -28 3 0 -103z"/>
<path d="M1877 633 c-8 -37 -13 -81 -10 -98 5 -28 5 -29 -10 -10 -14 19 -16
18 -31 -19 -9 -21 -16 -42 -16 -46 0 -4 -9 -27 -20 -51 -21 -48 -28 -88 -8
-54 6 11 17 25 24 30 6 6 17 27 24 48 6 20 13 37 14 37 2 0 2 -18 0 -40 -1
-26 -12 -52 -29 -72 -58 -69 -84 -162 -85 -301 l0 -58 32 3 c17 2 34 10 36 18
5 13 3 13 -11 2 -25 -21 -37 -5 -37 47 0 62 26 92 36 41 8 -35 24 -23 24 18 0
13 7 36 15 53 19 36 33 159 18 159 -8 0 -57 -88 -77 -140 -4 -8 -4 0 -1 19 11
72 94 175 114 142 10 -15 -2 -74 -40 -205 -30 -102 -36 -156 -19 -156 6 0 10
13 10 30 0 17 5 30 10 30 6 0 10 -13 10 -30 0 -25 4 -30 23 -30 17 0 28 13 50
57 21 44 24 59 15 66 -9 6 -8 7 4 3 12 -3 23 6 38 29 32 51 136 142 199 173
40 19 71 27 106 26 50 -1 50 0 19 12 -17 7 -36 20 -43 28 -14 16 -36 12 -25
-5 3 -5 10 -7 15 -4 5 4 9 1 9 -4 0 -6 -7 -11 -15 -11 -26 0 -156 -70 -150
-80 3 -6 1 -10 -4 -10 -37 0 18 48 87 75 46 19 52 29 24 44 -13 7 -23 6 -30
-1 -7 -7 -15 -8 -19 -4 -5 4 1 14 11 22 15 10 16 14 5 15 -31 1 -95 10 -106
14 -7 2 -13 -1 -13 -8 -1 -19 -29 36 -30 58 -1 18 -2 18 -13 4 -7 -9 -22 -21
-34 -27 -32 -18 -45 11 -28 61 8 23 9 37 2 37 -5 0 -16 8 -23 18 -12 15 -14
14 -20 -15 -3 -18 -10 -33 -15 -33 -14 0 -11 25 12 81 17 45 18 54 6 67 -13
12 -17 4 -30 -55z m42 -266 l-2 -22 -4 23 c-3 14 -12 22 -24 22 -11 0 -17 5
-14 10 11 17 45 -9 44 -33z m60 -45 c-11 -18 -39 -26 -39 -12 0 11 24 30 37
30 10 0 11 -4 2 -18z m75 -40 c2 -4 -13 -27 -35 -50 -21 -24 -39 -40 -39 -36
0 5 14 23 32 41 23 24 27 34 17 37 -8 2 -21 7 -29 9 -8 3 -1 6 17 6 17 1 34
-2 37 -7z m-234 -63 c0 -6 -4 -7 -10 -4 -5 3 -10 11 -10 16 0 6 5 7 10 4 6 -3
10 -11 10 -16z m144 -9 c-5 -5 -20 -11 -32 -13 -38 -6 -48 -23 -34 -59 6 -17
8 -36 4 -42 -7 -12 -8 -17 -11 -56 -3 -52 -19 3 -20 72 -1 67 0 69 32 88 33
21 79 28 61 10z m-4 -60 c0 -5 -2 -10 -4 -10 -3 0 -8 5 -11 10 -3 6 -1 10 4
10 6 0 11 -4 11 -10z"/>
<path d="M2207 693 c-6 -9 -10 -49 -8 -79 1 -30 52 -79 63 -62 12 20 10 38 -4
33 -19 -7 -36 37 -25 63 14 32 -9 72 -26 45z"/>
<path d="M937 661 c-4 -17 -3 -21 5 -13 5 5 8 16 6 23 -3 8 -7 3 -11 -10z"/>
<path d="M2251 624 c0 -11 3 -14 6 -6 3 7 2 16 -1 19 -3 4 -6 -2 -5 -13z"/>
<path d="M1977 553 c-15 -37 -24 -69 -22 -72 3 -2 21 14 41 37 19 23 39 42 44
42 4 0 5 -20 2 -45 -4 -42 -3 -45 18 -45 28 0 84 -16 123 -36 40 -19 30 -8
-81 94 l-99 91 -26 -66z"/>
<path d="M2505 582 c-56 -2 -92 -7 -97 -15 -12 -19 -9 -74 5 -85 6 -5 46 -12
87 -15 41 -3 84 -7 95 -9 18 -3 20 2 17 57 -2 33 -7 62 -10 65 -4 3 -47 4 -97
2z"/>
<path d="M747 573 c-3 -5 -4 -26 -3 -48 1 -39 2 -40 39 -43 20 -2 35 -7 32
-13 -3 -5 0 -6 8 -4 8 4 14 25 15 60 l1 55 -44 0 c-24 0 -46 -3 -48 -7z"/>
<path d="M2335 570 c-9 -15 3 -121 17 -137 19 -23 28 -14 28 27 0 30 -4 40
-16 40 -12 0 -14 3 -6 13 18 22 19 61 0 65 -9 2 -19 -2 -23 -8z"/>
<path d="M932 535 c0 -16 2 -22 5 -12 2 9 2 23 0 30 -3 6 -5 -1 -5 -18z"/>
<path d="M1061 490 c-60 -46 -97 -68 -104 -62 -7 4 -35 6 -64 4 -56 -4 -71
-19 -52 -54 8 -15 18 -19 45 -16 19 2 34 1 34 -3 0 -17 -35 -33 -73 -34 -38
-1 -42 -4 -40 -26 6 -56 6 -65 2 -79 -3 -10 5 -16 23 -18 24 -3 27 -7 25 -40
-1 -20 0 -65 1 -99 l2 -63 35 0 c30 0 37 5 48 33 24 55 151 306 154 303 4 -4
-45 -117 -105 -248 -35 -75 -38 -86 -22 -85 11 1 16 7 13 17 -4 12 -1 11 10
-2 13 -16 19 -8 66 93 62 131 107 247 115 292 8 41 -1 23 -51 -105 -20 -54
-41 -94 -45 -90 -6 6 10 61 39 132 3 8 5 21 4 27 -1 7 6 24 16 39 9 15 18 34
19 43 1 9 5 32 8 51 10 67 -4 66 -103 -10z m8 -27 c-34 -32 -68 -62 -75 -66
-8 -4 -19 -17 -25 -29 -6 -11 30 15 80 58 51 44 96 80 101 82 5 2 0 -18 -11
-45 -20 -45 -39 -76 -140 -223 -21 -31 -57 -92 -81 -137 l-43 -81 -3 89 c-4
105 14 179 55 230 31 39 184 178 196 178 5 1 -20 -25 -54 -56z m-129 -63 c0
-5 -5 -10 -11 -10 -5 0 -7 5 -4 10 3 6 8 10 11 10 2 0 4 -4 4 -10z m-71 -136
c1 -6 -6 -11 -14 -11 -10 0 -14 6 -10 14 3 8 5 22 6 31 0 14 2 13 9 -3 5 -11
9 -25 9 -31z m201 -103 c-7 -17 -17 -31 -23 -31 -6 0 -7 -3 -4 -7 4 -3 3 -11
-2 -17 -5 -6 -14 -28 -21 -50 -9 -28 -15 -35 -21 -25 -5 8 -9 19 -9 24 0 6 4
4 9 -3 5 -9 12 2 21 35 7 26 19 57 27 68 7 11 13 28 13 39 0 15 3 17 11 9 9
-9 9 -20 -1 -42z"/>
<path d="M1085 429 c-51 -57 -140 -196 -176 -274 -44 -98 -34 -101 15 -4 44
88 104 183 161 254 59 75 60 90 0 24z"/>
<path d="M962 333 c1 -5 -6 -22 -15 -40 -26 -48 -20 -54 8 -8 27 44 30 55 15
55 -5 0 -9 -3 -8 -7z"/>
<path d="M922 318 c-16 -21 -42 -119 -41 -157 1 -28 4 -22 14 29 7 36 20 82
28 103 17 39 16 45 -1 25z"/>
<path d="M2275 540 c-3 -6 3 -22 14 -36 l21 -27 0 37 c0 35 -20 50 -35 26z"/>
<path d="M1170 450 c0 -5 5 -10 10 -10 6 0 10 5 10 10 0 6 -4 10 -10 10 -5 0
-10 -4 -10 -10z"/>
<path d="M694 435 c-4 -8 -4 -24 -1 -35 3 -11 1 -20 -4 -20 -5 0 -9 -6 -9 -14
0 -9 19 -15 56 -20 59 -7 88 1 60 16 -9 5 -16 16 -16 24 0 11 -6 13 -20 9 -16
-5 -20 -2 -20 18 0 14 -7 28 -16 31 -22 8 -24 8 -30 -9z"/>
<path d="M762 432 c-2 -7 4 -19 14 -26 16 -12 20 -11 31 3 7 9 13 21 13 26 0
15 -52 12 -58 -3z"/>
<path d="M2410 436 c0 -8 -5 -16 -11 -18 -16 -5 17 -68 36 -68 10 0 15 11 15
35 0 21 5 35 13 35 16 1 -23 30 -40 30 -7 0 -13 -6 -13 -14z"/>
<path d="M2497 443 c-4 -3 -7 -11 -7 -17 0 -6 5 -5 12 2 6 6 9 14 7 17 -3 3
-9 2 -12 -2z"/>
<path d="M2515 416 c-24 -17 -15 -50 14 -54 39 -6 56 39 22 57 -13 7 -23 6
-36 -3z"/>
<path d="M1130 379 c0 -5 5 -7 10 -4 6 3 10 8 10 11 0 2 -4 4 -10 4 -5 0 -10
-5 -10 -11z"/>
<path d="M1163 311 c-12 -37 -42 -110 -67 -164 -26 -53 -51 -108 -56 -122
l-10 -25 69 0 69 0 31 95 c34 104 38 127 19 104 -7 -8 -26 -25 -42 -39 -20
-17 -13 -4 21 38 53 66 104 150 84 138 -6 -4 -34 -34 -61 -67 -62 -74 -64 -68
-6 14 l44 62 -37 16 -37 16 -21 -66z m27 -11 c0 -5 -2 -10 -4 -10 -3 0 -8 5
-11 10 -3 6 -1 10 4 10 6 0 11 -4 11 -10z"/>
<path d="M520 345 c-11 -13 -11 -18 2 -31 20 -20 50 -7 46 20 -4 26 -30 32
-48 11z"/>
<path d="M825 350 c3 -5 11 -10 16 -10 6 0 7 5 4 10 -3 6 -11 10 -16 10 -6 0
-7 -4 -4 -10z"/>
<path d="M2466 345 c-3 -9 -2 -14 3 -11 5 3 9 -6 9 -20 0 -29 9 -41 21 -28 18
18 16 46 -5 60 -19 13 -22 13 -28 -1z"/>
<path d="M600 329 c0 -13 8 -23 20 -26 14 -4 20 -12 18 -27 -2 -13 2 -21 11
-21 10 0 14 12 14 38 0 43 1 42 -35 51 -24 5 -28 3 -28 -15z"/>
<path d="M2535 330 c3 -5 8 -10 11 -10 2 0 4 5 4 10 0 6 -5 10 -11 10 -5 0 -7
-4 -4 -10z"/>
<path d="M693 324 c-19 -8 -16 -52 5 -62 9 -5 36 -12 59 -15 l42 -5 -6 32 c-3
17 -8 34 -12 38 -9 9 -74 18 -88 12z"/>
<path d="M1622 304 c-6 -11 -13 -33 -16 -47 -2 -15 -8 -31 -11 -37 -4 -6 -9
-30 -11 -54 -3 -25 -13 -67 -24 -95 -10 -28 -17 -51 -14 -51 7 0 34 60 27 60
-5 0 -2 4 5 9 7 4 15 17 17 27 2 10 4 19 5 19 1 0 3 9 4 20 2 11 11 49 20 83
18 67 17 101 -2 66z"/>
<path d="M286 264 c-4 -10 0 -24 9 -33 13 -13 19 -13 35 -3 12 7 20 8 20 2 0
-17 37 -11 44 7 9 23 -2 30 -55 38 -39 6 -47 4 -53 -11z"/>
<path d="M2378 253 c12 -22 30 -38 37 -31 2 2 -8 14 -22 28 -24 23 -25 23 -15
3z"/>
<path d="M741 186 c23 -40 47 -53 56 -29 7 18 -38 63 -62 63 -11 0 -10 -8 6
-34z"/>
<path d="M2440 209 c0 -7 27 -74 47 -119 11 -25 22 -52 26 -60 3 -8 6 0 6 18
1 36 -40 132 -64 152 -8 7 -15 11 -15 9z"/>
<path d="M2534 194 c3 -8 6 -18 6 -20 0 -3 5 -2 10 1 15 9 12 22 -6 29 -12 5
-15 2 -10 -10z"/>
<path d="M820 176 c0 -8 5 -18 10 -21 6 -3 10 1 10 9 0 8 -4 18 -10 21 -5 3
-10 -1 -10 -9z"/>
<path d="M2925 175 c-39 -11 -60 -25 -92 -62 -42 -47 -53 -73 -33 -73 6 0 10
-7 10 -15 0 -19 -9 -19 -30 0 -15 14 -19 13 -36 -6 l-18 -20 137 2 137 3 0 68
c0 38 -4 69 -10 69 -5 1 -14 2 -19 3 -23 3 -21 16 2 16 17 0 27 5 27 15 0 18
-9 18 -75 0z m32 -52 c3 -8 -3 -11 -16 -8 -12 2 -26 -1 -31 -8 -41 -48 -48
-60 -44 -72 3 -7 1 -16 -5 -20 -6 -3 -11 0 -11 9 0 8 -6 17 -12 20 -10 5 -10
7 0 12 26 12 52 48 47 65 -4 13 1 16 31 15 21 -1 39 -6 41 -13z m18 -73 c10
-11 16 -20 13 -20 -3 0 -13 9 -23 20 -10 11 -16 20 -13 20 3 0 13 -9 23 -20z
m-32 -20 c3 -11 1 -18 -4 -14 -5 3 -9 12 -9 20 0 20 7 17 13 -6z"/>
<path d="M1720 174 c0 -5 -9 -46 -19 -91 -14 -61 -16 -83 -7 -83 11 0 40 169
30 179 -2 2 -4 0 -4 -5z"/>
<path d="M787 134 c-16 -16 -6 -35 16 -32 12 2 22 10 22 18 0 16 -26 25 -38
14z"/>
<path d="M2104 126 c-12 -31 0 -51 31 -51 27 0 30 3 30 30 0 25 -4 30 -28 33
-17 2 -29 -2 -33 -12z"/>
<path d="M156 115 c-11 -8 -16 -21 -13 -30 8 -20 27 -19 43 3 29 37 8 56 -30
27z"/>
<path d="M1761 75 c0 -35 1 -37 10 -17 6 15 5 30 -1 40 -7 13 -9 8 -9 -23z"/>
<path d="M2694 55 c-7 -18 3 -35 21 -35 21 0 28 19 15 35 -16 19 -29 19 -36 0z"/>
<path d="M750 15 c0 -8 9 -15 20 -15 11 0 20 7 20 15 0 8 -9 15 -20 15 -11 0
-20 -7 -20 -15z"/>
<path d="M1910 10 c0 -5 5 -10 10 -10 6 0 10 5 10 10 0 6 -4 10 -10 10 -5 0
-10 -4 -10 -10z"/>
<path d="M8 3 c7 -3 16 -2 19 1 4 3 -2 6 -13 5 -11 0 -14 -3 -6 -6z"/>
<path d="M48 3 c7 -3 16 -2 19 1 4 3 -2 6 -13 5 -11 0 -14 -3 -6 -6z"/>
</g>
</svg>
