<svg xmlns="http://www.w3.org/2000/svg" viewBox="0 0 24 24" width="32" height="32" role="img" aria-label="Twitter">
  <g transform="scale(1)" fill="#FFFFFF">
    <path d="M23.954 4.569c-.885.392-1.83.656-2.825.775 1.014-.611 1.794-1.574 2.163-2.724-.951.564-2.005.974-3.127 1.195-.897-.957-2.178-1.555-3.594-1.555-2.719 0-4.924 2.206-4.924 4.924 0 .39.045.765.127 1.124C7.691 8.094 4.066 6.13 1.64 3.162c-.427.729-.666 1.577-.666 2.475 0 1.708.87 3.216 2.188 4.099-.807-.026-1.566-.248-2.229-.616v.062c0 2.385 1.693 4.374 3.946 4.827-.413.111-.849.171-1.296.171-.317 0-.626-.031-.928-.088.627 1.956 2.444 3.377 4.6 3.419-1.68 1.318-3.809 2.105-6.115 2.105-.398 0-.79-.023-1.175-.069 2.179 1.397 4.768 2.212 7.557 2.212 9.054 0 14.002-7.496 14.002-13.986 0-.21-.005-.423-.015-.633.962-.695 1.8-1.562 2.46-2.549z"/>
  </g>
</svg>