<svg xmlns="http://www.w3.org/2000/svg" viewBox="0 0 16 16" width="32" height="32" role="img" aria-label="Twitter">
  <rect rx="6" ry="6" width="100%" height="100%" fill="#1DA1F2"/>
  <g transform="translate(0,0) scale(1)" fill="#FFFFFF">
    <!-- Simplified Twitter bird mark -->
    <path d="M20.95 7.57c.01.14.01.28.01.42 0 4.27-3.25 9.19-9.19 9.19-1.83 0-3.53-.54-4.96-1.47.26.03.52.04.79.04 1.52 0 2.92-.52 4.04-1.4-1.42-.03-2.62-.96-3.03-2.24.2.04.41.06.63.06.3 0 .6-.04.88-.12-1.49-.3-2.61-1.61-2.61-3.18v-.04c.44.25.95.39 1.49.41-1.01-.68-1.67-1.85-1.67-3.17 0-.69.19-1.34.52-1.9 1.86 2.28 4.64 3.78 7.78 3.94-.06-.25-.09-.51-.09-.78 0-1.88 1.52-3.4 3.4-3.4.98 0 1.86.41 2.48 1.07.77-.15 1.49-.43 2.13-.81-.25.77-.78 1.41-1.48 1.82.68-.08 1.33-.26 1.93-.53-.45.67-1.03 1.25-1.7 1.72z"/>
  </g>
</svg>