<svg xmlns="http://www.w3.org/2000/svg" viewBox="0 0 16 16" width="32" height="32" role="img" aria-label="GitHub">
  <rect rx="6" ry="6" width="100%" height="100%" fill="#0f172a"/>
  <g transform="translate(0,0) scale(1)" fill="#FFFFFF">
    <!-- Simplified Octocat mark (legal use: simple, stylized version) -->
    <path d="M12 .5C6.76.5 2.5 4.76 2.5 10c0 4.21 2.73 7.77 6.52 9.03.48.09.66-.21.66-.47 0-.23-.01-.85-.01-1.67-2.65.58-3.21-1.14-3.21-1.14-.43-1.09-1.06-1.38-1.06-1.38-.87-.6.07-.59.07-.59.97.07 1.48 1 1.48 1 .86 1.47 2.25 1.05 2.8.8.09-.63.33-1.05.6-1.29-2.12-.24-4.35-1.06-4.35-4.72 0-1.04.37-1.89.98-2.56-.1-.24-.43-1.23.09-2.56 0 0 .8-.26 2.62.98a9.1 9.1 0 0 1 2.38-.32c.81.01 1.63.11 2.38.32 1.82-1.24 2.62-.98 2.62-.98.52 1.33.19 2.32.09 2.56.61.67.98 1.52.98 2.56 0 3.67-2.24 4.48-4.38 4.72.34.29.65.86.65 1.74 0 1.25-.01 2.26-.01 2.57 0 .26.18.56.67.47A9.51 9.51 0 0 0 21.5 10C21.5 4.76 17.24.5 12 .5z"/>
  </g>
</svg>