<svg xmlns="http://www.w3.org/2000/svg" viewBox="0.00947369635105133 5.760000228881836 77.04052734375 31.89000129699707" data-asc="0.75" width="77.04052734375" height="31.89000129699707"><defs/><g fill="#e5d7d8"><g transform="translate(0, 0)"><path d="M27.00 36.01Q27.20 36.55 27.21 36.88Q27.22 37.21 27.03 37.38Q26.83 37.55 26.38 37.60Q25.93 37.65 25.17 37.65Q24.41 37.65 23.96 37.61Q23.51 37.57 23.28 37.49Q23.05 37.40 22.94 37.26Q22.83 37.11 22.73 36.89L20.02 29.20L6.88 29.20L4.30 36.79Q4.22 37.01 4.10 37.17Q3.98 37.33 3.75 37.44Q3.52 37.55 3.09 37.60Q2.66 37.65 1.98 37.65Q1.27 37.65 0.82 37.59Q0.37 37.52 0.18 37.35Q0 37.18 0.01 36.85Q0.02 36.52 0.22 35.99L10.82 6.64Q10.91 6.37 11.07 6.20Q11.23 6.03 11.54 5.93Q11.84 5.83 12.32 5.80Q12.79 5.76 13.53 5.76Q14.31 5.76 14.82 5.80Q15.33 5.83 15.65 5.93Q15.97 6.03 16.14 6.21Q16.31 6.40 16.41 6.67L27.00 36.01M13.40 10.11L13.38 10.11L7.93 25.85L18.92 25.85L13.40 10.11ZM53.10 28.44Q53.10 29.93 52.72 31.19Q52.34 32.45 51.66 33.45Q50.98 34.45 50.01 35.21Q49.05 35.96 47.84 36.47Q46.63 36.99 45.25 37.24Q43.87 37.50 42.09 37.50L33.84 37.50Q33.28 37.50 32.78 37.12Q32.28 36.74 32.28 35.79L32.28 7.62Q32.28 6.67 32.78 6.29Q33.28 5.91 33.84 5.91L41.02 5.91Q43.85 5.91 45.65 6.45Q47.46 6.98 48.67 8.01Q49.88 9.03 50.49 10.52Q51.10 12.01 51.10 13.89Q51.10 15.01 50.83 16.04Q50.56 17.07 50.04 17.93Q49.51 18.80 48.72 19.48Q47.92 20.17 46.90 20.61Q48.19 20.85 49.32 21.50Q50.44 22.14 51.28 23.14Q52.12 24.15 52.61 25.49Q53.10 26.83 53.10 28.44M46.78 14.31Q46.78 13.16 46.46 12.23Q46.14 11.30 45.46 10.66Q44.78 10.01 43.68 9.67Q42.58 9.33 40.77 9.33L36.43 9.33L36.43 19.56L41.21 19.56Q42.85 19.56 43.85 19.13Q44.85 18.70 45.51 17.98Q46.17 17.26 46.47 16.30Q46.78 15.33 46.78 14.31M48.68 28.69Q48.68 27.27 48.23 26.20Q47.78 25.12 46.91 24.39Q46.04 23.66 44.74 23.28Q43.43 22.90 41.46 22.90L36.43 22.90L36.43 34.03L42.53 34.03Q43.97 34.03 45.04 33.69Q46.12 33.35 46.94 32.68Q47.75 32.01 48.22 31.01Q48.68 30.00 48.68 28.69ZM77.05 35.77Q77.05 36.21 77.00 36.54Q76.95 36.87 76.83 37.08Q76.71 37.30 76.55 37.40Q76.39 37.50 76.20 37.50L61.04 37.50Q60.47 37.50 59.97 37.12Q59.47 36.74 59.47 35.79L59.47 7.62Q59.47 6.67 59.97 6.29Q60.47 5.91 61.04 5.91L76.03 5.91Q76.22 5.91 76.38 6.01Q76.54 6.10 76.64 6.32Q76.73 6.54 76.79 6.87Q76.86 7.20 76.86 7.69Q76.86 8.13 76.79 8.46Q76.73 8.79 76.64 9.00Q76.54 9.20 76.38 9.30Q76.22 9.40 76.03 9.40L63.67 9.40L63.67 19.31L74.27 19.31Q74.46 19.31 74.62 19.42Q74.78 19.53 74.89 19.73Q75 19.92 75.05 20.26Q75.10 20.61 75.10 21.07Q75.10 21.51 75.05 21.83Q75 22.14 74.89 22.34Q74.78 22.53 74.62 22.62Q74.46 22.71 74.27 22.71L63.67 22.71L63.67 34.01L76.20 34.01Q76.39 34.01 76.55 34.11Q76.71 34.20 76.83 34.41Q76.95 34.62 77.00 34.95Q77.05 35.28 77.05 35.77Z"/></g></g></svg>